<?xml version="1.0" encoding="UTF-8" standalone="no"?>
<!-- Created with Inkscape (http://www.inkscape.org/) -->

<svg
   width="210mm"
   height="297mm"
   viewBox="0 0 210 297"
   version="1.1"
   id="svg5"
   sodipodi:docname="heat_flow.svg"
   inkscape:version="1.2.2 (b0a8486541, 2022-12-01)"
   xmlns:inkscape="http://www.inkscape.org/namespaces/inkscape"
   xmlns:sodipodi="http://sodipodi.sourceforge.net/DTD/sodipodi-0.dtd"
   xmlns:xlink="http://www.w3.org/1999/xlink"
   xmlns="http://www.w3.org/2000/svg"
   xmlns:svg="http://www.w3.org/2000/svg">
  <sodipodi:namedview
     id="namedview7"
     pagecolor="#dbdbdb"
     bordercolor="#666666"
     borderopacity="1.0"
     inkscape:showpageshadow="2"
     inkscape:pageopacity="0"
     inkscape:pagecheckerboard="true"
     inkscape:deskcolor="#f4f4f4"
     inkscape:document-units="mm"
     showgrid="false"
     inkscape:zoom="2.5330766"
     inkscape:cx="163.04284"
     inkscape:cy="311.08416"
     inkscape:window-width="3840"
     inkscape:window-height="2079"
     inkscape:window-x="0"
     inkscape:window-y="0"
     inkscape:window-maximized="1"
     inkscape:current-layer="layer1" />
  <defs
     id="defs2">
    <linearGradient
       inkscape:collect="always"
       id="linearGradient6049">
      <stop
         style="stop-color:#ffffff;stop-opacity:1;"
         offset="0"
         id="stop6047" />
      <stop
         style="stop-color:#cccccc;stop-opacity:1;"
         offset="0.40003946"
         id="stop10967" />
      <stop
         style="stop-color:#ffffff;stop-opacity:1;"
         offset="1"
         id="stop6045" />
    </linearGradient>
    <marker
       style="overflow:visible"
       id="marker1500"
       refX="0"
       refY="0"
       orient="auto-start-reverse"
       inkscape:stockid="TriangleStart"
       markerWidth="5.3244081"
       markerHeight="6.155385"
       viewBox="0 0 5.3244081 6.1553851"
       inkscape:isstock="true"
       inkscape:collect="always"
       preserveAspectRatio="xMidYMid">
      <path
         transform="scale(0.5)"
         style="fill:context-stroke;fill-rule:evenodd;stroke:context-stroke;stroke-width:1pt"
         d="M 5.77,0 -2.88,5 V -5 Z"
         id="path1498" />
    </marker>
    <marker
       style="overflow:visible"
       id="TriangleStart"
       refX="0"
       refY="0"
       orient="auto-start-reverse"
       inkscape:stockid="TriangleStart"
       markerWidth="5.3244081"
       markerHeight="6.155385"
       viewBox="0 0 5.3244081 6.1553851"
       inkscape:isstock="true"
       inkscape:collect="always"
       preserveAspectRatio="xMidYMid">
      <path
         transform="scale(0.5)"
         style="fill:context-stroke;fill-rule:evenodd;stroke:context-stroke;stroke-width:1pt"
         d="M 5.77,0 -2.88,5 V -5 Z"
         id="path135" />
    </marker>
    <marker
       style="overflow:visible"
       id="TriangleStart-5"
       refX="0"
       refY="0"
       orient="auto-start-reverse"
       inkscape:stockid="TriangleStart"
       markerWidth="5.3244081"
       markerHeight="6.155385"
       viewBox="0 0 5.3244081 6.1553851"
       inkscape:isstock="true"
       inkscape:collect="always"
       preserveAspectRatio="xMidYMid">
      <path
         transform="scale(0.5)"
         style="fill:context-stroke;fill-rule:evenodd;stroke:context-stroke;stroke-width:1pt"
         d="M 5.77,0 -2.88,5 V -5 Z"
         id="path135-3" />
    </marker>
    <marker
       style="overflow:visible"
       id="marker1500-6"
       refX="0"
       refY="0"
       orient="auto-start-reverse"
       inkscape:stockid="TriangleStart"
       markerWidth="5.3244081"
       markerHeight="6.155385"
       viewBox="0 0 5.3244081 6.1553851"
       inkscape:isstock="true"
       inkscape:collect="always"
       preserveAspectRatio="xMidYMid">
      <path
         transform="scale(0.5)"
         style="fill:context-stroke;fill-rule:evenodd;stroke:context-stroke;stroke-width:1pt"
         d="M 5.77,0 -2.88,5 V -5 Z"
         id="path1498-2" />
    </marker>
    <clipPath
       id="clipPath2126">
      <path
         clip-rule="nonzero"
         d="M 0,2 H 5 V 8.589844 H 0 Z m 0,0"
         id="path9735" />
    </clipPath>
    <clipPath
       id="clipPath8077">
      <path
         clip-rule="nonzero"
         d="M 5,3 H 8 V 8.589844 H 5 Z m 0,0"
         id="path5726" />
    </clipPath>
    <clipPath
       id="clipPath7940">
      <path
         clip-rule="nonzero"
         d="M 0,2 H 5 V 8.589844 H 0 Z m 0,0"
         id="path3789" />
    </clipPath>
    <clipPath
       id="clipPath4782">
      <path
         clip-rule="nonzero"
         d="M 4,3 H 8 V 8.589844 H 4 Z m 0,0"
         id="path9628" />
    </clipPath>
    <clipPath
       id="clipPath6747">
      <path
         clip-rule="nonzero"
         d="M 0,2 H 5 V 8.589844 H 0 Z m 0,0"
         id="path1128" />
    </clipPath>
    <clipPath
       id="clipPath9791">
      <path
         clip-rule="nonzero"
         d="M 4,3 H 8.917969 V 8.589844 H 4 Z m 0,0"
         id="path2067" />
    </clipPath>
    <clipPath
       id="clipPath8089">
      <path
         clip-rule="nonzero"
         d="M 0,2 H 5 V 8.589844 H 0 Z m 0,0"
         id="path5072" />
    </clipPath>
    <clipPath
       id="clipPath9765">
      <path
         clip-rule="nonzero"
         d="M 4,3 H 8.917969 V 8.589844 H 4 Z m 0,0"
         id="path9304" />
    </clipPath>
    <clipPath
       id="clipPath8142">
      <path
         clip-rule="nonzero"
         d="M 6,4 H 9 V 9.402344 H 6 Z m 0,0"
         id="path7458" />
    </clipPath>
    <clipPath
       id="clipPath9432">
      <path
         clip-rule="nonzero"
         d="m 6,6 h 3 v 5.53125 H 6 Z m 0,0"
         id="path6982" />
    </clipPath>
    <clipPath
       id="clipPath6801">
      <path
         clip-rule="nonzero"
         d="M 4,1 H 7 V 5.785156 H 4 Z m 0,0"
         id="path1686" />
    </clipPath>
    <clipPath
       id="clipPath8907">
      <path
         clip-rule="nonzero"
         d="M 0,0 H 8 V 6.808594 H 0 Z m 0,0"
         id="path9257" />
    </clipPath>
    <clipPath
       id="clipPath9569">
      <path
         clip-rule="nonzero"
         d="m 8,2 h 5 V 6.808594 H 8 Z m 0,0"
         id="path3441" />
    </clipPath>
    <clipPath
       id="clipPath8701">
      <path
         clip-rule="nonzero"
         d="m 4,7 h 4 v 5.125 H 4 Z m 0,0"
         id="path3597" />
    </clipPath>
    <marker
       style="overflow:visible"
       id="marker1500-1"
       refX="0"
       refY="0"
       orient="auto-start-reverse"
       inkscape:stockid="TriangleStart"
       markerWidth="5.3244081"
       markerHeight="6.155385"
       viewBox="0 0 5.3244081 6.1553851"
       inkscape:isstock="true"
       inkscape:collect="always"
       preserveAspectRatio="xMidYMid">
      <path
         transform="scale(0.5)"
         style="fill:context-stroke;fill-rule:evenodd;stroke:context-stroke;stroke-width:1pt"
         d="M 5.77,0 -2.88,5 V -5 Z"
         id="path1498-27" />
    </marker>
    <marker
       style="overflow:visible"
       id="marker1500-1-6"
       refX="0"
       refY="0"
       orient="auto-start-reverse"
       inkscape:stockid="TriangleStart"
       markerWidth="5.3244081"
       markerHeight="6.155385"
       viewBox="0 0 5.3244081 6.1553851"
       inkscape:isstock="true"
       inkscape:collect="always"
       preserveAspectRatio="xMidYMid">
      <path
         transform="scale(0.5)"
         style="fill:context-stroke;fill-rule:evenodd;stroke:context-stroke;stroke-width:1pt"
         d="M 5.77,0 -2.88,5 V -5 Z"
         id="path1498-27-0" />
    </marker>
    <linearGradient
       inkscape:collect="always"
       xlink:href="#linearGradient6049"
       id="linearGradient6051"
       x1="83.883926"
       y1="133.48422"
       x2="83.883926"
       y2="93.984222"
       gradientUnits="userSpaceOnUse"
       spreadMethod="pad" />
    <clipPath
       id="clipPath262">
      <path
         clip-rule="nonzero"
         d="m 7,3 h 3.882812 V 8.300781 H 7 Z m 0,0"
         id="path8015" />
    </clipPath>
    <clipPath
       id="clipPath4410">
      <path
         clip-rule="nonzero"
         d="m 9,4 h 3 V 9.964844 H 9 Z m 0,0"
         id="path658" />
    </clipPath>
    <clipPath
       id="clipPath4295">
      <path
         clip-rule="nonzero"
         d="m 9,4 h 3 v 6.792969 H 9 Z m 0,0"
         id="path3849" />
    </clipPath>
    <clipPath
       id="clipPath2819">
      <path
         clip-rule="nonzero"
         d="m 12,4 h 10 v 6.792969 H 12 Z m 0,0"
         id="path117" />
    </clipPath>
    <clipPath
       id="clipPath3947">
      <path
         clip-rule="nonzero"
         d="m 9,4 h 3 v 6.792969 H 9 Z m 0,0"
         id="path1591" />
    </clipPath>
    <clipPath
       id="clipPath5815">
      <path
         clip-rule="nonzero"
         d="m 12,4 h 10 v 6.792969 H 12 Z m 0,0"
         id="path2386" />
    </clipPath>
    <clipPath
       id="clipPath8777">
      <path
         clip-rule="nonzero"
         d="m 10,5 h 4 v 7.785156 h -4 z m 0,0"
         id="path8470" />
    </clipPath>
    <clipPath
       id="clipPath2161">
      <path
         clip-rule="nonzero"
         d="m 14,5 h 13 v 7.785156 H 14 Z m 0,0"
         id="path392" />
    </clipPath>
    <clipPath
       id="clipPath9737">
      <path
         clip-rule="nonzero"
         d="m 10,5 h 4 v 6.953125 h -4 z m 0,0"
         id="path2327" />
    </clipPath>
    <clipPath
       id="clipPath4022">
      <path
         clip-rule="nonzero"
         d="m 8,9 h 4 v 6.785156 H 8 Z m 0,0"
         id="path1061" />
    </clipPath>
    <clipPath
       id="clipPath947">
      <path
         clip-rule="nonzero"
         d="m 8,10 h 4 v 6.613281 H 8 Z m 0,0"
         id="path6438" />
    </clipPath>
  </defs>
  <g
     inkscape:label="Layer 1"
     inkscape:groupmode="layer"
     id="layer1">
    <rect
       style="fill:#b3b3b3;fill-opacity:1;stroke:#000000;stroke-width:0.499999"
       id="rect234"
       width="80"
       height="20"
       x="36.203342"
       y="73.734222" />
    <rect
       style="fill:#b3b3b3;fill-opacity:0.99999315;stroke:#000000;stroke-width:0.499999"
       id="rect234-3"
       width="80"
       height="20"
       x="36.203339"
       y="133.73422" />
    <path
       id="path555"
       style="fill:url(#linearGradient6051);fill-opacity:1;stroke:#000000;stroke-width:0.499999"
       d="m 116.20334,133.73422 c 8.28427,0 15,-8.95431 15,-20 0,-11.04569 -6.71573,-19.999998 -15,-19.999998 H 36.203342 c 8.28427,0 15,8.954308 15,19.999998 0,11.04569 -6.71573,20 -15,20 z"
       sodipodi:nodetypes="csccscc" />
    <path
       id="path6864"
       style="display:inline;fill:#cccccc;fill-opacity:1;stroke:#000000;stroke-width:0.499999"
       d="m 116.20334,153.73422 c 16.56854,0 30,-17.90861 30,-40 0,-22.091389 -13.43146,-39.999997 -30,-39.999998 v 20 c 8.28427,0 15,8.954308 15,19.999998 0,11.04569 -6.71573,20 -15,20 z"
       sodipodi:nodetypes="csccscc" />
    <path
       style="fill:none;stroke:#008000;stroke-width:0.265;stroke-linecap:butt;stroke-linejoin:miter;stroke-dasharray:none;stroke-opacity:1;marker-end:url(#TriangleStart)"
       d="M 76.203341,73.551431 V 59.382038"
       id="path1277" />
    <path
       style="fill:none;stroke:#008000;stroke-width:0.265;stroke-linecap:butt;stroke-linejoin:miter;stroke-dasharray:none;stroke-opacity:1;marker-end:url(#TriangleStart-5)"
       d="M 76.203341,109.00743 V 94.837853"
       id="path1277-5" />
    <path
       style="fill:none;stroke:#008000;stroke-width:0.264583px;stroke-linecap:butt;stroke-linejoin:miter;stroke-opacity:1;marker-end:url(#marker1500)"
       d="m 116.43833,83.734221 h 14.14239"
       id="path1496" />
    <path
       style="fill:none;stroke:#008000;stroke-width:0.264583px;stroke-linecap:butt;stroke-linejoin:miter;stroke-opacity:1;marker-end:url(#marker1500-6)"
       d="M 20.976507,83.734221 H 35.118895"
       id="path1496-9" />
    <g
       inkscape:label=""
       transform="matrix(1.4,0,0,1.4,26.13918,84.548526)"
       id="g2200"
       style="fill:#008000;stroke-width:0.714286">
      <g
         fill="#000000"
         fill-opacity="1"
         id="g26"
         transform="matrix(0.352778,0,0,0.352778,-0.143316,0.00630597)"
         style="fill:#008000;stroke-width:0.510204">
        <g
           id="use24"
           transform="translate(1.849,6.6539998)"
           style="fill:#008000;stroke-width:0.714286">
          <path
             d="m 1.90625,-6.140625 c 0,-0.265625 -0.21875,-0.53125 -0.515625,-0.53125 -0.34375,0 -0.546875,0.28125 -0.546875,0.53125 0,0.265625 0.234375,0.53125 0.53125,0.53125 0.34375,0 0.53125,-0.28125 0.53125,-0.53125 z m 0,0"
             id="path44"
             style="fill:#008000;stroke-width:0.714286" />
        </g>
      </g>
      <g
         fill="#000000"
         fill-opacity="1"
         id="g36"
         transform="matrix(0.35277801,0,0,0.35277801,-0.14331585,0.00630548)"
         style="fill:#008000;stroke-width:0.510204">
        <g
           id="use34"
           transform="translate(4.447,8.1479998)"
           style="fill:#008000;stroke-width:0.714286">
          <path
             d="m 2.328125,-4.4375 c 0,-0.1875 0,-0.1875 -0.203125,-0.1875 -0.453125,0.4375 -1.078125,0.4375 -1.359375,0.4375 v 0.25 c 0.15625,0 0.625,0 1,-0.1875 v 3.546875 c 0,0.234375 0,0.328125 -0.6875,0.328125 H 0.8125 V 0 c 0.125,0 0.984375,-0.03125 1.234375,-0.03125 0.21875,0 1.09375,0.03125 1.25,0.03125 V -0.25 H 3.03125 c -0.703125,0 -0.703125,-0.09375 -0.703125,-0.328125 z m 0,0"
             id="path52"
             style="fill:#008000;stroke-width:0.714286" />
        </g>
      </g>
      <g
         fill="#000000"
         fill-opacity="1"
         id="g30"
         transform="matrix(0.35277801,0,0,0.35277801,-0.14331585,0.00630548)"
         style="fill:#008000;stroke-width:0.510204">
        <g
           id="use28"
           transform="translate(0,6.6539998)"
           style="fill:#008000;stroke-width:0.714286">
          <path
             d="m 4.5,-4.296875 c 0,-0.046875 -0.03125,-0.09375 -0.09375,-0.09375 -0.109375,0 -0.515625,0.390625 -0.671875,0.6875 C 3.515625,-4.25 3.125,-4.40625 2.796875,-4.40625 c -1.171875,0 -2.390625,1.46875 -2.390625,2.921875 0,0.96875 0.578125,1.59375 1.3125,1.59375 0.421875,0 0.8125,-0.234375 1.171875,-0.59375 -0.09375,0.34375 -0.421875,1.6875 -0.453125,1.78125 -0.078125,0.28125 -0.15625,0.3125 -0.71875,0.328125 -0.125,0 -0.21875,0 -0.21875,0.203125 0,0 0,0.109375 0.125,0.109375 0.3125,0 0.671875,-0.03125 1,-0.03125 0.328125,0 0.6875,0.03125 1.03125,0.03125 0.046875,0 0.171875,0 0.171875,-0.203125 C 3.828125,1.625 3.734375,1.625 3.5625,1.625 3.09375,1.625 3.09375,1.5625 3.09375,1.46875 3.09375,1.390625 3.109375,1.328125 3.125,1.25 Z m -2.75,4.1875 c -0.609375,0 -0.640625,-0.765625 -0.640625,-0.9375 0,-0.484375 0.28125,-1.5625 0.453125,-1.984375 0.3125,-0.734375 0.828125,-1.15625 1.234375,-1.15625 0.65625,0 0.796875,0.8125 0.796875,0.875 0,0.0625 -0.546875,2.25 -0.578125,2.28125 C 2.859375,-0.75 2.296875,-0.109375 1.75,-0.109375 Z m 0,0"
             id="path48"
             style="fill:#008000;stroke-width:0.714286" />
        </g>
      </g>
    </g>
    <g
       inkscape:label=""
       transform="matrix(1.4,0,0,1.4,121.24871,84.548526)"
       id="g2342"
       style="fill:#008000;stroke-width:0.714286">
      <g
         fill="#000000"
         fill-opacity="1"
         id="g2324"
         transform="matrix(0.352778,0,0,0.352778,-0.143316,0.00630597)"
         style="fill:#008000;stroke-width:0.510204">
        <g
           id="g2322"
           transform="translate(1.849,6.6539998)"
           style="fill:#008000;stroke-width:0.714286">
          <path
             d="m 1.90625,-6.140625 c 0,-0.265625 -0.21875,-0.53125 -0.515625,-0.53125 -0.34375,0 -0.546875,0.28125 -0.546875,0.53125 0,0.265625 0.234375,0.53125 0.53125,0.53125 0.34375,0 0.53125,-0.28125 0.53125,-0.53125 z m 0,0"
             id="path2320"
             style="fill:#008000;stroke-width:0.714286" />
        </g>
      </g>
      <g
         fill="#000000"
         fill-opacity="1"
         id="g2338"
         transform="matrix(0.35277801,0,0,0.35277801,-0.14331494,0.0063065)"
         style="fill:#008000;stroke-width:0.510204">
        <g
           id="g2336"
           transform="translate(4.447,8.1479998)"
           style="fill:#008000;stroke-width:0.714286">
          <path
             d="M 3.515625,-1.265625 H 3.28125 c -0.015625,0.15625 -0.09375,0.5625 -0.1875,0.625 C 3.046875,-0.59375 2.515625,-0.59375 2.40625,-0.59375 H 1.125 c 0.734375,-0.640625 0.984375,-0.84375 1.390625,-1.171875 0.515625,-0.40625 1,-0.84375 1,-1.5 0,-0.84375 -0.734375,-1.359375 -1.625,-1.359375 -0.859375,0 -1.453125,0.609375 -1.453125,1.25 0,0.34375 0.296875,0.390625 0.375,0.390625 0.15625,0 0.359375,-0.125 0.359375,-0.375 0,-0.125 -0.046875,-0.375 -0.40625,-0.375 C 0.984375,-4.21875 1.453125,-4.375 1.78125,-4.375 c 0.703125,0 1.0625,0.546875 1.0625,1.109375 0,0.609375 -0.4375,1.078125 -0.65625,1.328125 L 0.515625,-0.265625 C 0.4375,-0.203125 0.4375,-0.1875 0.4375,0 h 2.875 z m 0,0"
             id="path2334"
             style="fill:#008000;stroke-width:0.714286" />
        </g>
      </g>
      <g
         fill="#000000"
         fill-opacity="1"
         id="g2330"
         transform="matrix(0.35277801,0,0,0.35277801,-0.14331494,0.0063065)"
         style="fill:#008000;stroke-width:0.510204">
        <g
           id="g2328"
           transform="translate(0,6.6539998)"
           style="fill:#008000;stroke-width:0.714286">
          <path
             d="m 4.5,-4.296875 c 0,-0.046875 -0.03125,-0.09375 -0.09375,-0.09375 -0.109375,0 -0.515625,0.390625 -0.671875,0.6875 C 3.515625,-4.25 3.125,-4.40625 2.796875,-4.40625 c -1.171875,0 -2.390625,1.46875 -2.390625,2.921875 0,0.96875 0.578125,1.59375 1.3125,1.59375 0.421875,0 0.8125,-0.234375 1.171875,-0.59375 -0.09375,0.34375 -0.421875,1.6875 -0.453125,1.78125 -0.078125,0.28125 -0.15625,0.3125 -0.71875,0.328125 -0.125,0 -0.21875,0 -0.21875,0.203125 0,0 0,0.109375 0.125,0.109375 0.3125,0 0.671875,-0.03125 1,-0.03125 0.328125,0 0.6875,0.03125 1.03125,0.03125 0.046875,0 0.171875,0 0.171875,-0.203125 C 3.828125,1.625 3.734375,1.625 3.5625,1.625 3.09375,1.625 3.09375,1.5625 3.09375,1.46875 3.09375,1.390625 3.109375,1.328125 3.125,1.25 Z m -2.75,4.1875 c -0.609375,0 -0.640625,-0.765625 -0.640625,-0.9375 0,-0.484375 0.28125,-1.5625 0.453125,-1.984375 0.3125,-0.734375 0.828125,-1.15625 1.234375,-1.15625 0.65625,0 0.796875,0.8125 0.796875,0.875 0,0.0625 -0.546875,2.25 -0.578125,2.28125 C 2.859375,-0.75 2.296875,-0.109375 1.75,-0.109375 Z m 0,0"
             id="path2326"
             style="fill:#008000;stroke-width:0.714286" />
        </g>
      </g>
    </g>
    <g
       inkscape:label=""
       transform="matrix(1.4,0,0,1.4,77.018928,99.67403)"
       id="g2516"
       style="fill:#008000;stroke-width:0.714286">
      <g
         fill="#000000"
         fill-opacity="1"
         id="g2498"
         transform="matrix(0.352778,0,0,0.352778,-0.143316,0.00630597)"
         style="fill:#008000;stroke-width:0.510204">
        <g
           id="g2496"
           transform="translate(1.849,6.6539998)"
           style="fill:#008000;stroke-width:0.714286">
          <path
             d="m 1.90625,-6.140625 c 0,-0.265625 -0.21875,-0.53125 -0.515625,-0.53125 -0.34375,0 -0.546875,0.28125 -0.546875,0.53125 0,0.265625 0.234375,0.53125 0.53125,0.53125 0.34375,0 0.53125,-0.28125 0.53125,-0.53125 z m 0,0"
             id="path2494"
             style="fill:#008000;stroke-width:0.714286" />
        </g>
      </g>
      <g
         fill="#000000"
         fill-opacity="1"
         id="g2512"
         transform="matrix(0.35277801,0,0,0.35277801,-0.14331469,0.00630535)"
         style="fill:#008000;stroke-width:0.510204">
        <g
           id="g2510"
           transform="translate(4.447,8.1479998)"
           style="fill:#008000;stroke-width:0.714286">
          <path
             d="m 1.90625,-2.328125 c 0.546875,0 0.9375,0.375 0.9375,1.125 0,0.859375 -0.515625,1.125 -0.90625,1.125 -0.28125,0 -0.90625,-0.078125 -1.1875,-0.5 0.328125,0 0.40625,-0.234375 0.40625,-0.390625 0,-0.21875 -0.171875,-0.375 -0.390625,-0.375 -0.1875,0 -0.390625,0.125 -0.390625,0.40625 0,0.65625 0.71875,1.078125 1.5625,1.078125 0.96875,0 1.640625,-0.65625 1.640625,-1.34375 0,-0.546875 -0.4375,-1.09375 -1.203125,-1.25 0.71875,-0.265625 0.984375,-0.78125 0.984375,-1.21875 0,-0.546875 -0.625,-0.953125 -1.40625,-0.953125 -0.765625,0 -1.359375,0.375 -1.359375,0.9375 0,0.234375 0.15625,0.359375 0.359375,0.359375 0.21875,0 0.359375,-0.15625 0.359375,-0.34375 0,-0.203125 -0.140625,-0.359375 -0.359375,-0.375 0.25,-0.296875 0.71875,-0.375 0.984375,-0.375 0.3125,0 0.75,0.15625 0.75,0.75 0,0.296875 -0.09375,0.625 -0.28125,0.828125 -0.21875,0.265625 -0.421875,0.28125 -0.765625,0.3125 -0.171875,0.015625 -0.1875,0.015625 -0.21875,0.015625 -0.015625,0 -0.078125,0.015625 -0.078125,0.09375 0,0.09375 0.0625,0.09375 0.1875,0.09375 z m 0,0"
             id="path2508"
             style="fill:#008000;stroke-width:0.714286" />
        </g>
      </g>
      <g
         fill="#000000"
         fill-opacity="1"
         id="g2504"
         transform="matrix(0.35277801,0,0,0.35277801,-0.14331469,0.00630535)"
         style="fill:#008000;stroke-width:0.510204">
        <g
           id="g2502"
           transform="translate(0,6.6539998)"
           style="fill:#008000;stroke-width:0.714286">
          <path
             d="m 4.5,-4.296875 c 0,-0.046875 -0.03125,-0.09375 -0.09375,-0.09375 -0.109375,0 -0.515625,0.390625 -0.671875,0.6875 C 3.515625,-4.25 3.125,-4.40625 2.796875,-4.40625 c -1.171875,0 -2.390625,1.46875 -2.390625,2.921875 0,0.96875 0.578125,1.59375 1.3125,1.59375 0.421875,0 0.8125,-0.234375 1.171875,-0.59375 -0.09375,0.34375 -0.421875,1.6875 -0.453125,1.78125 -0.078125,0.28125 -0.15625,0.3125 -0.71875,0.328125 -0.125,0 -0.21875,0 -0.21875,0.203125 0,0 0,0.109375 0.125,0.109375 0.3125,0 0.671875,-0.03125 1,-0.03125 0.328125,0 0.6875,0.03125 1.03125,0.03125 0.046875,0 0.171875,0 0.171875,-0.203125 C 3.828125,1.625 3.734375,1.625 3.5625,1.625 3.09375,1.625 3.09375,1.5625 3.09375,1.46875 3.09375,1.390625 3.109375,1.328125 3.125,1.25 Z m -2.75,4.1875 c -0.609375,0 -0.640625,-0.765625 -0.640625,-0.9375 0,-0.484375 0.28125,-1.5625 0.453125,-1.984375 0.3125,-0.734375 0.828125,-1.15625 1.234375,-1.15625 0.65625,0 0.796875,0.8125 0.796875,0.875 0,0.0625 -0.546875,2.25 -0.578125,2.28125 C 2.859375,-0.75 2.296875,-0.109375 1.75,-0.109375 Z m 0,0"
             id="path2500"
             style="fill:#008000;stroke-width:0.714286" />
        </g>
      </g>
    </g>
    <g
       inkscape:label=""
       transform="matrix(1.4,0,0,1.4,77.018929,64.638832)"
       id="g2722"
       style="fill:#008000;stroke-width:0.714286">
      <g
         fill="#000000"
         fill-opacity="1"
         id="g2704"
         transform="matrix(0.352778,0,0,0.352778,-0.143316,0.00630597)"
         style="fill:#008000;stroke-width:0.510204">
        <g
           id="g2702"
           transform="translate(1.849,6.6539998)"
           style="fill:#008000;stroke-width:0.714286">
          <path
             d="m 1.90625,-6.140625 c 0,-0.265625 -0.21875,-0.53125 -0.515625,-0.53125 -0.34375,0 -0.546875,0.28125 -0.546875,0.53125 0,0.265625 0.234375,0.53125 0.53125,0.53125 0.34375,0 0.53125,-0.28125 0.53125,-0.53125 z m 0,0"
             id="path2700"
             style="fill:#008000;stroke-width:0.714286" />
        </g>
      </g>
      <g
         fill="#000000"
         fill-opacity="1"
         id="g2718"
         transform="matrix(0.35277801,0,0,0.35277801,-0.1433159,0.00630615)"
         style="fill:#008000;stroke-width:0.510204">
        <g
           id="g2716"
           transform="translate(4.447,8.1479998)"
           style="fill:#008000;stroke-width:0.714286">
          <path
             d="m 3.6875,-1.140625 v -0.25 H 2.90625 V -4.5 c 0,-0.140625 0,-0.203125 -0.140625,-0.203125 -0.09375,0 -0.125,0 -0.1875,0.109375 l -2.3125,3.203125 v 0.25 h 2.0625 v 0.5625 c 0,0.25 0,0.328125 -0.578125,0.328125 H 1.5625 V 0 C 1.921875,-0.015625 2.359375,-0.03125 2.609375,-0.03125 2.875,-0.03125 3.3125,-0.015625 3.671875,0 v -0.25 h -0.1875 C 2.90625,-0.25 2.90625,-0.328125 2.90625,-0.578125 v -0.5625 z M 2.375,-3.9375 v 2.546875 H 0.53125 Z m 0,0"
             id="path2714"
             style="fill:#008000;stroke-width:0.714286" />
        </g>
      </g>
      <g
         fill="#000000"
         fill-opacity="1"
         id="g2710"
         transform="matrix(0.35277801,0,0,0.35277801,-0.1433159,0.00630615)"
         style="fill:#008000;stroke-width:0.510204">
        <g
           id="g2708"
           transform="translate(0,6.6539998)"
           style="fill:#008000;stroke-width:0.714286">
          <path
             d="m 4.5,-4.296875 c 0,-0.046875 -0.03125,-0.09375 -0.09375,-0.09375 -0.109375,0 -0.515625,0.390625 -0.671875,0.6875 C 3.515625,-4.25 3.125,-4.40625 2.796875,-4.40625 c -1.171875,0 -2.390625,1.46875 -2.390625,2.921875 0,0.96875 0.578125,1.59375 1.3125,1.59375 0.421875,0 0.8125,-0.234375 1.171875,-0.59375 -0.09375,0.34375 -0.421875,1.6875 -0.453125,1.78125 -0.078125,0.28125 -0.15625,0.3125 -0.71875,0.328125 -0.125,0 -0.21875,0 -0.21875,0.203125 0,0 0,0.109375 0.125,0.109375 0.3125,0 0.671875,-0.03125 1,-0.03125 0.328125,0 0.6875,0.03125 1.03125,0.03125 0.046875,0 0.171875,0 0.171875,-0.203125 C 3.828125,1.625 3.734375,1.625 3.5625,1.625 3.09375,1.625 3.09375,1.5625 3.09375,1.46875 3.09375,1.390625 3.109375,1.328125 3.125,1.25 Z m -2.75,4.1875 c -0.609375,0 -0.640625,-0.765625 -0.640625,-0.9375 0,-0.484375 0.28125,-1.5625 0.453125,-1.984375 0.3125,-0.734375 0.828125,-1.15625 1.234375,-1.15625 0.65625,0 0.796875,0.8125 0.796875,0.875 0,0.0625 -0.546875,2.25 -0.578125,2.28125 C 2.859375,-0.75 2.296875,-0.109375 1.75,-0.109375 Z m 0,0"
             id="path2706"
             style="fill:#008000;stroke-width:0.714286" />
        </g>
      </g>
    </g>
    <path
       style="fill:none;stroke:#000000;stroke-width:0.264583px;stroke-linecap:butt;stroke-linejoin:miter;stroke-opacity:1;stroke-dasharray:1.05833197,0.52916598,0.26458299,0.52916598;stroke-dashoffset:0"
       d="M 36.203342,83.734221 H 116.20334"
       id="path3788" />
    <path
       style="fill:none;stroke:#000000;stroke-width:0.264583px;stroke-linecap:butt;stroke-linejoin:miter;stroke-opacity:1;marker-end:url(#marker1500)"
       d="M 57.680774,113.73422 V 84.806066"
       id="path3790" />
    <path
       style="fill:none;stroke:#000000;stroke-width:0.264582px;stroke-linecap:butt;stroke-linejoin:miter;stroke-opacity:1;marker-end:url(#marker1500-1)"
       d="M 87.569941,113.60191 V 94.926172"
       id="path3790-0" />
    <path
       style="fill:none;stroke:#000000;stroke-width:0.264582px;stroke-linecap:butt;stroke-linejoin:miter;stroke-opacity:1;marker-end:url(#marker1500-1-6)"
       d="M 99.576921,113.60193 V 74.874268"
       id="path3790-0-6" />
    <path
       style="fill:none;stroke:#000000;stroke-width:0.264583px;stroke-linecap:butt;stroke-linejoin:miter;stroke-dasharray:1.05833, 0.529166, 0.264583, 0.529166;stroke-dashoffset:0;stroke-opacity:1"
       d="M 122.75569,113.73422 H 32.682495"
       id="path3792"
       inkscape:label="midline" />
    <g
       inkscape:label=""
       transform="matrix(1.4,0,0,1.4,58.495079,99.030507)"
       id="g4464"
       style="stroke-width:0.714286">
      <g
         fill="#000000"
         fill-opacity="1"
         id="g19"
         transform="matrix(0.352778,0,0,0.352778,-0.104731,0.0410104)"
         style="stroke-width:0.510204">
        <g
           id="use17"
           transform="translate(0,4.29)"
           style="stroke-width:0.714286">
          <path
             d="m 0.875,-0.59375 c -0.03125,0.15625 -0.09375,0.390625 -0.09375,0.4375 0,0.171875 0.140625,0.265625 0.296875,0.265625 0.125,0 0.296875,-0.078125 0.375,-0.28125 C 1.46875,-0.203125 1.796875,-1.5625 1.84375,-1.75 c 0.078125,-0.328125 0.265625,-1.015625 0.3125,-1.296875 0.046875,-0.125 0.328125,-0.59375 0.5625,-0.8125 0.078125,-0.0625 0.375,-0.328125 0.796875,-0.328125 0.265625,0 0.40625,0.125 0.421875,0.125 -0.296875,0.046875 -0.515625,0.28125 -0.515625,0.546875 0,0.15625 0.109375,0.34375 0.375,0.34375 0.265625,0 0.546875,-0.234375 0.546875,-0.59375 0,-0.34375 -0.3125,-0.640625 -0.828125,-0.640625 C 2.875,-4.40625 2.4375,-3.921875 2.25,-3.640625 2.15625,-4.09375 1.796875,-4.40625 1.328125,-4.40625 0.875,-4.40625 0.6875,-4.015625 0.59375,-3.84375 0.421875,-3.5 0.296875,-2.90625 0.296875,-2.875 c 0,0.109375 0.09375,0.109375 0.109375,0.109375 0.109375,0 0.109375,-0.015625 0.171875,-0.234375 0.171875,-0.703125 0.375,-1.1875 0.734375,-1.1875 0.15625,0 0.296875,0.078125 0.296875,0.453125 0,0.21875 -0.03125,0.328125 -0.15625,0.84375 z m 0,0"
             id="path31"
             style="stroke-width:0.714286" />
        </g>
      </g>
      <g
         fill="#000000"
         fill-opacity="1"
         id="g23"
         transform="matrix(0.35277801,0,0,0.35277801,-0.10473054,0.04100977)"
         style="stroke-width:0.510204">
        <g
           id="use21"
           transform="translate(4.4949999,5.7839999)"
           style="stroke-width:0.714286">
          <path
             d="m 2.265625,-4.359375 c 0,-0.109375 -0.09375,-0.265625 -0.28125,-0.265625 -0.1875,0 -0.390625,0.1875 -0.390625,0.390625 0,0.109375 0.078125,0.265625 0.28125,0.265625 0.1875,0 0.390625,-0.203125 0.390625,-0.390625 z M 0.84375,-0.8125 c -0.03125,0.09375 -0.0625,0.171875 -0.0625,0.296875 0,0.328125 0.265625,0.578125 0.65625,0.578125 0.6875,0 1,-0.953125 1,-1.0625 0,-0.09375 -0.09375,-0.09375 -0.109375,-0.09375 -0.09375,0 -0.109375,0.046875 -0.140625,0.125 -0.15625,0.5625 -0.453125,0.84375 -0.734375,0.84375 -0.140625,0 -0.171875,-0.09375 -0.171875,-0.25 0,-0.15625 0.046875,-0.28125 0.109375,-0.4375 C 1.46875,-1 1.546875,-1.1875 1.609375,-1.375 1.671875,-1.546875 1.9375,-2.171875 1.953125,-2.265625 1.984375,-2.328125 2,-2.40625 2,-2.484375 2,-2.8125 1.71875,-3.078125 1.34375,-3.078125 0.640625,-3.078125 0.328125,-2.125 0.328125,-2 c 0,0.078125 0.09375,0.078125 0.125,0.078125 0.09375,0 0.09375,-0.03125 0.125,-0.109375 C 0.75,-2.625 1.0625,-2.875 1.3125,-2.875 c 0.109375,0 0.171875,0.046875 0.171875,0.234375 0,0.171875 -0.03125,0.265625 -0.203125,0.703125 z m 0,0"
             id="path35"
             style="stroke-width:0.714286" />
        </g>
      </g>
    </g>
    <g
       inkscape:label=""
       transform="translate(100.95738,104)"
       id="g2481">
      <g
         fill="#000000"
         fill-opacity="1"
         id="g2465"
         transform="matrix(0.352778,0,0,0.352778,-0.237023,-0.00216092)">
        <g
           id="g2463"
           transform="translate(0,9.8030005)">
          <path
             d="m 5.28125,-8.828125 c 0.125,-0.53125 0.1875,-0.546875 0.75,-0.546875 H 7.0625 c 1.234375,0 2.140625,0.359375 2.140625,1.484375 0,0.734375 -0.375,2.84375 -3.25,2.84375 h -1.625 z M 7.265625,-4.875 c 1.78125,-0.390625 3.171875,-1.53125 3.171875,-2.765625 0,-1.125 -1.125,-2.15625 -3.125,-2.15625 H 3.421875 c -0.28125,0 -0.40625,0 -0.40625,0.265625 0,0.15625 0.09375,0.15625 0.375,0.15625 C 4.25,-9.375 4.25,-9.265625 4.25,-9.109375 4.25,-9.078125 4.25,-9 4.1875,-8.78125 L 2.25,-1.0625 c -0.125,0.5 -0.15625,0.640625 -1.140625,0.640625 -0.328125,0 -0.4375,0 -0.4375,0.28125 C 0.671875,0 0.828125,0 0.875,0 1.140625,0 1.4375,-0.03125 1.703125,-0.03125 H 3.40625 c 0.25,0 0.546875,0.03125 0.8125,0.03125 0.109375,0 0.265625,0 0.265625,-0.265625 0,-0.15625 -0.125,-0.15625 -0.34375,-0.15625 -0.875,0 -0.875,-0.109375 -0.875,-0.25 0,-0.015625 0,-0.109375 0.03125,-0.234375 l 0.96875,-3.859375 h 1.71875 c 1.359375,0 1.625,0.859375 1.625,1.34375 0,0.203125 -0.15625,0.765625 -0.25,1.140625 -0.15625,0.65625 -0.203125,0.8125 -0.203125,1.09375 0,1.015625 0.828125,1.484375 1.796875,1.484375 1.15625,0 1.65625,-1.421875 1.65625,-1.609375 0,-0.109375 -0.0625,-0.15625 -0.15625,-0.15625 -0.109375,0 -0.140625,0.09375 -0.171875,0.203125 C 9.9375,-0.25 9.359375,0.015625 9,0.015625 c -0.359375,0 -0.59375,-0.15625 -0.59375,-0.796875 0,-0.359375 0.171875,-1.65625 0.1875,-1.734375 0.0625,-0.53125 0.0625,-0.578125 0.0625,-0.703125 0,-1.046875 -0.84375,-1.484375 -1.390625,-1.65625 z m 0,0"
             id="path49" />
        </g>
      </g>
      <g
         fill="#000000"
         fill-opacity="1"
         id="g41"
         transform="matrix(0.35277801,0,0,0.35277801,-0.23702169,-0.00216063)">
        <g
           id="g2474"
           transform="translate(14.124,11.955)">
          <path
             d="m 4.078125,-2.296875 h 2.78125 C 7,-2.296875 7.1875,-2.296875 7.1875,-2.5 7.1875,-2.6875 7,-2.6875 6.859375,-2.6875 h -2.78125 v -2.796875 c 0,-0.140625 0,-0.328125 -0.203125,-0.328125 -0.203125,0 -0.203125,0.1875 -0.203125,0.328125 V -2.6875 h -2.78125 c -0.140625,0 -0.328125,0 -0.328125,0.1875 0,0.203125 0.1875,0.203125 0.328125,0.203125 h 2.78125 V 0.5 c 0,0.140625 0,0.328125 0.203125,0.328125 0.203125,0 0.203125,-0.1875 0.203125,-0.328125 z m 0,0"
             id="path57" />
        </g>
        <g
           id="use39"
           transform="translate(21.87291,11.955)">
          <path
             d="m 2.9375,-6.375 c 0,-0.25 0,-0.265625 -0.234375,-0.265625 C 2.078125,-6 1.203125,-6 0.890625,-6 v 0.3125 c 0.203125,0 0.78125,0 1.296875,-0.265625 v 5.171875 c 0,0.359375 -0.03125,0.46875 -0.921875,0.46875 h -0.3125 V 0 c 0.34375,-0.03125 1.203125,-0.03125 1.609375,-0.03125 0.390625,0 1.265625,0 1.609375,0.03125 v -0.3125 h -0.3125 c -0.90625,0 -0.921875,-0.109375 -0.921875,-0.46875 z m 0,0"
             id="path61" />
        </g>
      </g>
      <g
         fill="#000000"
         fill-opacity="1"
         id="g2470"
         transform="matrix(0.35277801,0,0,0.35277801,-0.23702169,-0.00216063)">
        <g
           id="g2468"
           transform="translate(10.692,11.955)">
          <path
             d="m 2.828125,-6.234375 c 0,-0.203125 -0.140625,-0.359375 -0.359375,-0.359375 -0.28125,0 -0.546875,0.265625 -0.546875,0.53125 0,0.1875 0.140625,0.359375 0.375,0.359375 0.234375,0 0.53125,-0.234375 0.53125,-0.53125 z m -0.75,3.75 c 0.109375,-0.28125 0.109375,-0.3125 0.21875,-0.578125 0.078125,-0.203125 0.125,-0.34375 0.125,-0.53125 0,-0.4375 -0.3125,-0.8125 -0.8125,-0.8125 -0.9375,0 -1.3125,1.453125 -1.3125,1.53125 0,0.109375 0.09375,0.109375 0.109375,0.109375 0.109375,0 0.109375,-0.03125 0.15625,-0.1875 0.28125,-0.9375 0.671875,-1.234375 1.015625,-1.234375 0.078125,0 0.25,0 0.25,0.3125 0,0.21875 -0.078125,0.421875 -0.109375,0.53125 -0.078125,0.25 -0.53125,1.40625 -0.6875,1.84375 -0.109375,0.25 -0.234375,0.578125 -0.234375,0.796875 0,0.46875 0.34375,0.8125 0.8125,0.8125 0.9375,0 1.3125,-1.4375 1.3125,-1.53125 0,-0.109375 -0.09375,-0.109375 -0.125,-0.109375 -0.09375,0 -0.09375,0.03125 -0.140625,0.1875 -0.1875,0.625 -0.515625,1.234375 -1.015625,1.234375 -0.171875,0 -0.25,-0.09375 -0.25,-0.328125 0,-0.25 0.0625,-0.390625 0.296875,-1 z m 0,0"
             id="path53" />
        </g>
      </g>
    </g>
    <g
       inkscape:label=""
       transform="translate(88.77325,104)"
       id="g2932">
      <g
         fill="#000000"
         fill-opacity="1"
         id="g2923"
         transform="matrix(0.352778,0,0,0.352778,-0.237023,-0.00216092)">
        <g
           id="g2921"
           transform="translate(0,9.8030005)">
          <path
             d="m 5.28125,-8.828125 c 0.125,-0.53125 0.1875,-0.546875 0.75,-0.546875 H 7.0625 c 1.234375,0 2.140625,0.359375 2.140625,1.484375 0,0.734375 -0.375,2.84375 -3.25,2.84375 h -1.625 z M 7.265625,-4.875 c 1.78125,-0.390625 3.171875,-1.53125 3.171875,-2.765625 0,-1.125 -1.125,-2.15625 -3.125,-2.15625 H 3.421875 c -0.28125,0 -0.40625,0 -0.40625,0.265625 0,0.15625 0.09375,0.15625 0.375,0.15625 C 4.25,-9.375 4.25,-9.265625 4.25,-9.109375 4.25,-9.078125 4.25,-9 4.1875,-8.78125 L 2.25,-1.0625 c -0.125,0.5 -0.15625,0.640625 -1.140625,0.640625 -0.328125,0 -0.4375,0 -0.4375,0.28125 C 0.671875,0 0.828125,0 0.875,0 1.140625,0 1.4375,-0.03125 1.703125,-0.03125 H 3.40625 c 0.25,0 0.546875,0.03125 0.8125,0.03125 0.109375,0 0.265625,0 0.265625,-0.265625 0,-0.15625 -0.125,-0.15625 -0.34375,-0.15625 -0.875,0 -0.875,-0.109375 -0.875,-0.25 0,-0.015625 0,-0.109375 0.03125,-0.234375 l 0.96875,-3.859375 h 1.71875 c 1.359375,0 1.625,0.859375 1.625,1.34375 0,0.203125 -0.15625,0.765625 -0.25,1.140625 -0.15625,0.65625 -0.203125,0.8125 -0.203125,1.09375 0,1.015625 0.828125,1.484375 1.796875,1.484375 1.15625,0 1.65625,-1.421875 1.65625,-1.609375 0,-0.109375 -0.0625,-0.15625 -0.15625,-0.15625 -0.109375,0 -0.140625,0.09375 -0.171875,0.203125 C 9.9375,-0.25 9.359375,0.015625 9,0.015625 c -0.359375,0 -0.59375,-0.15625 -0.59375,-0.796875 0,-0.359375 0.171875,-1.65625 0.1875,-1.734375 0.0625,-0.53125 0.0625,-0.578125 0.0625,-0.703125 0,-1.046875 -0.84375,-1.484375 -1.390625,-1.65625 z m 0,0"
             id="path2919" />
        </g>
      </g>
      <g
         fill="#000000"
         fill-opacity="1"
         id="g2929"
         transform="matrix(0.35277801,0,0,0.35277801,-0.23702298,-0.00216063)">
        <g
           id="g2927"
           transform="translate(10.692,11.955)">
          <path
             d="m 2.828125,-6.234375 c 0,-0.203125 -0.140625,-0.359375 -0.359375,-0.359375 -0.28125,0 -0.546875,0.265625 -0.546875,0.53125 0,0.1875 0.140625,0.359375 0.375,0.359375 0.234375,0 0.53125,-0.234375 0.53125,-0.53125 z m -0.75,3.75 c 0.109375,-0.28125 0.109375,-0.3125 0.21875,-0.578125 0.078125,-0.203125 0.125,-0.34375 0.125,-0.53125 0,-0.4375 -0.3125,-0.8125 -0.8125,-0.8125 -0.9375,0 -1.3125,1.453125 -1.3125,1.53125 0,0.109375 0.09375,0.109375 0.109375,0.109375 0.109375,0 0.109375,-0.03125 0.15625,-0.1875 0.28125,-0.9375 0.671875,-1.234375 1.015625,-1.234375 0.078125,0 0.25,0 0.25,0.3125 0,0.21875 -0.078125,0.421875 -0.109375,0.53125 -0.078125,0.25 -0.53125,1.40625 -0.6875,1.84375 -0.109375,0.25 -0.234375,0.578125 -0.234375,0.796875 0,0.46875 0.34375,0.8125 0.8125,0.8125 0.9375,0 1.3125,-1.4375 1.3125,-1.53125 0,-0.109375 -0.09375,-0.109375 -0.125,-0.109375 -0.09375,0 -0.09375,0.03125 -0.140625,0.1875 -0.1875,0.625 -0.515625,1.234375 -1.015625,1.234375 -0.171875,0 -0.25,-0.09375 -0.25,-0.328125 0,-0.25 0.0625,-0.390625 0.296875,-1 z m 0,0"
             id="path2925" />
        </g>
      </g>
    </g>
    <g
       inkscape:label=""
       transform="translate(34.055264,67)"
       id="g4597">
      <g
         fill="#000000"
         fill-opacity="1"
         id="g4582"
         transform="matrix(0.352778,0,0,0.352778,-0.121267,0.00136694)">
        <g
           id="g4580"
           transform="translate(0,12.124)">
          <path
             d="M 5.984375,-8.75 C 6.0625,-9.09375 6.09375,-9.21875 6.3125,-9.28125 6.421875,-9.3125 6.90625,-9.3125 7.203125,-9.3125 c 1.4375,0 2.109375,0.0625 2.109375,1.171875 0,0.21875 -0.0625,0.765625 -0.140625,1.296875 L 9.15625,-6.671875 c 0,0.0625 0.046875,0.140625 0.140625,0.140625 0.140625,0 0.140625,-0.0625 0.1875,-0.296875 l 0.40625,-2.53125 C 9.921875,-9.5 9.921875,-9.53125 9.921875,-9.5625 c 0,-0.15625 -0.078125,-0.15625 -0.375,-0.15625 h -7.84375 c -0.328125,0 -0.34375,0.015625 -0.421875,0.265625 L 0.40625,-6.875 c -0.015625,0.03125 -0.0625,0.1875 -0.0625,0.203125 0,0.078125 0.0625,0.140625 0.140625,0.140625 0.125,0 0.140625,-0.046875 0.203125,-0.234375 C 1.296875,-8.5 1.59375,-9.3125 3.5,-9.3125 h 0.953125 c 0.359375,0 0.5,0 0.5,0.15625 0,0.046875 0,0.078125 -0.078125,0.328125 L 2.953125,-1.125 c -0.140625,0.5625 -0.171875,0.703125 -1.6875,0.703125 -0.359375,0 -0.46875,0 -0.46875,0.28125 C 0.796875,0 0.96875,0 1.03125,0 1.390625,0 1.765625,-0.03125 2.125,-0.03125 H 4.359375 C 4.71875,-0.03125 5.109375,0 5.46875,0 5.625,0 5.765625,0 5.765625,-0.265625 c 0,-0.15625 -0.09375,-0.15625 -0.46875,-0.15625 C 4,-0.421875 4,-0.546875 4,-0.765625 4,-0.78125 4,-0.875 4.0625,-1.109375 Z m 0,0"
             id="path4578" />
        </g>
      </g>
      <g
         fill="#000000"
         fill-opacity="1"
         id="g4588"
         transform="matrix(0.352778,0,0,0.352778,-0.121267,0.00136694)">
        <g
           id="g4586"
           transform="translate(10.184,6.9180002)">
          <path
             d="m 2.859375,-6.8125 c 0,0 0,-0.109375 -0.125,-0.109375 -0.234375,0 -0.953125,0.078125 -1.21875,0.109375 -0.078125,0 -0.1875,0.015625 -0.1875,0.1875 0,0.125 0.09375,0.125 0.234375,0.125 0.484375,0 0.5,0.0625 0.5,0.171875 L 2.03125,-6.125 0.59375,-0.390625 c -0.046875,0.140625 -0.046875,0.15625 -0.046875,0.21875 0,0.234375 0.203125,0.28125 0.296875,0.28125 0.125,0 0.265625,-0.09375 0.328125,-0.203125 0.046875,-0.09375 0.5,-1.9375 0.5625,-2.1875 0.34375,0.03125 1.15625,0.1875 1.15625,0.84375 0,0.078125 0,0.109375 -0.03125,0.21875 -0.015625,0.109375 -0.03125,0.234375 -0.03125,0.34375 0,0.578125 0.390625,0.984375 0.90625,0.984375 0.296875,0 0.578125,-0.15625 0.796875,-0.53125 0.25,-0.4375 0.359375,-0.984375 0.359375,-1 0,-0.109375 -0.09375,-0.109375 -0.125,-0.109375 -0.09375,0 -0.109375,0.046875 -0.140625,0.1875 -0.203125,0.71875 -0.421875,1.234375 -0.859375,1.234375 -0.203125,0 -0.328125,-0.109375 -0.328125,-0.46875 0,-0.171875 0.046875,-0.40625 0.078125,-0.5625 C 3.5625,-1.3125 3.5625,-1.34375 3.5625,-1.453125 3.5625,-2.09375 2.9375,-2.375 2.078125,-2.5 2.390625,-2.671875 2.71875,-2.984375 2.9375,-3.234375 3.421875,-3.765625 3.875,-4.1875 4.359375,-4.1875 c 0.0625,0 0.078125,0 0.09375,0.015625 0.125,0.015625 0.125,0.015625 0.21875,0.078125 0.015625,0 0.015625,0.015625 0.03125,0.03125 -0.46875,0.03125 -0.5625,0.421875 -0.5625,0.546875 0,0.15625 0.109375,0.34375 0.375,0.34375 0.265625,0 0.546875,-0.21875 0.546875,-0.609375 0,-0.296875 -0.234375,-0.625 -0.671875,-0.625 -0.28125,0 -0.734375,0.078125 -1.453125,0.875 -0.34375,0.375 -0.734375,0.78125 -1.109375,0.921875 z m 0,0"
             id="path4584" />
        </g>
      </g>
      <g
         fill="#000000"
         fill-opacity="1"
         id="g4594"
         transform="matrix(0.35277801,0,0,0.35277801,-0.12126617,0.00136619)">
        <g
           id="g4592"
           transform="translate(8.2329998,15.784)">
          <path
             d="m 2.828125,-6.234375 c 0,-0.203125 -0.140625,-0.359375 -0.359375,-0.359375 -0.28125,0 -0.546875,0.265625 -0.546875,0.53125 0,0.1875 0.140625,0.359375 0.375,0.359375 0.234375,0 0.53125,-0.234375 0.53125,-0.53125 z m -0.75,3.75 c 0.109375,-0.28125 0.109375,-0.3125 0.21875,-0.578125 0.078125,-0.203125 0.125,-0.34375 0.125,-0.53125 0,-0.4375 -0.3125,-0.8125 -0.8125,-0.8125 -0.9375,0 -1.3125,1.453125 -1.3125,1.53125 0,0.109375 0.09375,0.109375 0.109375,0.109375 0.109375,0 0.109375,-0.03125 0.15625,-0.1875 0.28125,-0.9375 0.671875,-1.234375 1.015625,-1.234375 0.078125,0 0.25,0 0.25,0.3125 0,0.21875 -0.078125,0.421875 -0.109375,0.53125 -0.078125,0.25 -0.53125,1.40625 -0.6875,1.84375 -0.109375,0.25 -0.234375,0.578125 -0.234375,0.796875 0,0.46875 0.34375,0.8125 0.8125,0.8125 0.9375,0 1.3125,-1.4375 1.3125,-1.53125 0,-0.109375 -0.09375,-0.109375 -0.125,-0.109375 -0.09375,0 -0.09375,0.03125 -0.140625,0.1875 -0.1875,0.625 -0.515625,1.234375 -1.015625,1.234375 -0.171875,0 -0.25,-0.09375 -0.25,-0.328125 0,-0.25 0.0625,-0.390625 0.296875,-1 z m 0,0"
             id="path4590" />
        </g>
      </g>
    </g>
    <g
       inkscape:label=""
       transform="translate(111.55389,66.808945)"
       id="g5083">
      <g
         fill="#000000"
         fill-opacity="1"
         id="g5058"
         transform="matrix(0.352778,0,0,0.352778,-0.121267,0.00101418)">
        <g
           id="g5056"
           transform="translate(0,12.691)">
          <path
             d="M 5.984375,-8.75 C 6.0625,-9.09375 6.09375,-9.21875 6.3125,-9.28125 6.421875,-9.3125 6.90625,-9.3125 7.203125,-9.3125 c 1.4375,0 2.109375,0.0625 2.109375,1.171875 0,0.21875 -0.0625,0.765625 -0.140625,1.296875 L 9.15625,-6.671875 c 0,0.0625 0.046875,0.140625 0.140625,0.140625 0.140625,0 0.140625,-0.0625 0.1875,-0.296875 l 0.40625,-2.53125 C 9.921875,-9.5 9.921875,-9.53125 9.921875,-9.5625 c 0,-0.15625 -0.078125,-0.15625 -0.375,-0.15625 h -7.84375 c -0.328125,0 -0.34375,0.015625 -0.421875,0.265625 L 0.40625,-6.875 c -0.015625,0.03125 -0.0625,0.1875 -0.0625,0.203125 0,0.078125 0.0625,0.140625 0.140625,0.140625 0.125,0 0.140625,-0.046875 0.203125,-0.234375 C 1.296875,-8.5 1.59375,-9.3125 3.5,-9.3125 h 0.953125 c 0.359375,0 0.5,0 0.5,0.15625 0,0.046875 0,0.078125 -0.078125,0.328125 L 2.953125,-1.125 c -0.140625,0.5625 -0.171875,0.703125 -1.6875,0.703125 -0.359375,0 -0.46875,0 -0.46875,0.28125 C 0.796875,0 0.96875,0 1.03125,0 1.390625,0 1.765625,-0.03125 2.125,-0.03125 H 4.359375 C 4.71875,-0.03125 5.109375,0 5.46875,0 5.625,0 5.765625,0 5.765625,-0.265625 c 0,-0.15625 -0.09375,-0.15625 -0.46875,-0.15625 C 4,-0.421875 4,-0.546875 4,-0.765625 4,-0.78125 4,-0.875 4.0625,-1.109375 Z m 0,0"
             id="path5054" />
        </g>
      </g>
      <g
         fill="#000000"
         fill-opacity="1"
         id="g5064"
         transform="matrix(0.352778,0,0,0.352778,-0.121267,0.00101418)">
        <g
           id="g5062"
           transform="translate(10.184,6.9190001)">
          <path
             d="m 2.859375,-6.8125 c 0,0 0,-0.109375 -0.125,-0.109375 -0.234375,0 -0.953125,0.078125 -1.21875,0.109375 -0.078125,0 -0.1875,0.015625 -0.1875,0.1875 0,0.125 0.09375,0.125 0.234375,0.125 0.484375,0 0.5,0.0625 0.5,0.171875 L 2.03125,-6.125 0.59375,-0.390625 c -0.046875,0.140625 -0.046875,0.15625 -0.046875,0.21875 0,0.234375 0.203125,0.28125 0.296875,0.28125 0.125,0 0.265625,-0.09375 0.328125,-0.203125 0.046875,-0.09375 0.5,-1.9375 0.5625,-2.1875 0.34375,0.03125 1.15625,0.1875 1.15625,0.84375 0,0.078125 0,0.109375 -0.03125,0.21875 -0.015625,0.109375 -0.03125,0.234375 -0.03125,0.34375 0,0.578125 0.390625,0.984375 0.90625,0.984375 0.296875,0 0.578125,-0.15625 0.796875,-0.53125 0.25,-0.4375 0.359375,-0.984375 0.359375,-1 0,-0.109375 -0.09375,-0.109375 -0.125,-0.109375 -0.09375,0 -0.109375,0.046875 -0.140625,0.1875 -0.203125,0.71875 -0.421875,1.234375 -0.859375,1.234375 -0.203125,0 -0.328125,-0.109375 -0.328125,-0.46875 0,-0.171875 0.046875,-0.40625 0.078125,-0.5625 C 3.5625,-1.3125 3.5625,-1.34375 3.5625,-1.453125 3.5625,-2.09375 2.9375,-2.375 2.078125,-2.5 2.390625,-2.671875 2.71875,-2.984375 2.9375,-3.234375 3.421875,-3.765625 3.875,-4.1875 4.359375,-4.1875 c 0.0625,0 0.078125,0 0.09375,0.015625 0.125,0.015625 0.125,0.015625 0.21875,0.078125 0.015625,0 0.015625,0.015625 0.03125,0.03125 -0.46875,0.03125 -0.5625,0.421875 -0.5625,0.546875 0,0.15625 0.109375,0.34375 0.375,0.34375 0.265625,0 0.546875,-0.21875 0.546875,-0.609375 0,-0.296875 -0.234375,-0.625 -0.671875,-0.625 -0.28125,0 -0.734375,0.078125 -1.453125,0.875 -0.34375,0.375 -0.734375,0.78125 -1.109375,0.921875 z m 0,0"
             id="path5060" />
        </g>
      </g>
      <g
         fill="#000000"
         fill-opacity="1"
         id="g5074"
         transform="matrix(0.352778,0,0,0.352778,-0.121267,0.00101418)">
        <g
           id="g5068"
           transform="translate(15.684,6.9190001)">
          <path
             d="m 4.078125,-2.296875 h 2.78125 C 7,-2.296875 7.1875,-2.296875 7.1875,-2.5 7.1875,-2.6875 7,-2.6875 6.859375,-2.6875 h -2.78125 v -2.796875 c 0,-0.140625 0,-0.328125 -0.203125,-0.328125 -0.203125,0 -0.203125,0.1875 -0.203125,0.328125 V -2.6875 h -2.78125 c -0.140625,0 -0.328125,0 -0.328125,0.1875 0,0.203125 0.1875,0.203125 0.328125,0.203125 h 2.78125 V 0.5 c 0,0.140625 0,0.328125 0.203125,0.328125 0.203125,0 0.203125,-0.1875 0.203125,-0.328125 z m 0,0"
             id="path5066" />
        </g>
        <g
           id="g5072"
           transform="translate(23.432911,6.9190001)">
          <path
             d="m 2.9375,-6.375 c 0,-0.25 0,-0.265625 -0.234375,-0.265625 C 2.078125,-6 1.203125,-6 0.890625,-6 v 0.3125 c 0.203125,0 0.78125,0 1.296875,-0.265625 v 5.171875 c 0,0.359375 -0.03125,0.46875 -0.921875,0.46875 h -0.3125 V 0 c 0.34375,-0.03125 1.203125,-0.03125 1.609375,-0.03125 0.390625,0 1.265625,0 1.609375,0.03125 v -0.3125 h -0.3125 c -0.90625,0 -0.921875,-0.109375 -0.921875,-0.46875 z m 0,0"
             id="path5070" />
        </g>
      </g>
      <g
         fill="#000000"
         fill-opacity="1"
         id="g5080"
         transform="matrix(0.35277801,0,0,0.35277801,-0.12126954,0.00101367)">
        <g
           id="g5078"
           transform="translate(8.2329998,16.615)">
          <path
             d="m 2.828125,-6.234375 c 0,-0.203125 -0.140625,-0.359375 -0.359375,-0.359375 -0.28125,0 -0.546875,0.265625 -0.546875,0.53125 0,0.1875 0.140625,0.359375 0.375,0.359375 0.234375,0 0.53125,-0.234375 0.53125,-0.53125 z m -0.75,3.75 c 0.109375,-0.28125 0.109375,-0.3125 0.21875,-0.578125 0.078125,-0.203125 0.125,-0.34375 0.125,-0.53125 0,-0.4375 -0.3125,-0.8125 -0.8125,-0.8125 -0.9375,0 -1.3125,1.453125 -1.3125,1.53125 0,0.109375 0.09375,0.109375 0.109375,0.109375 0.109375,0 0.109375,-0.03125 0.15625,-0.1875 0.28125,-0.9375 0.671875,-1.234375 1.015625,-1.234375 0.078125,0 0.25,0 0.25,0.3125 0,0.21875 -0.078125,0.421875 -0.109375,0.53125 -0.078125,0.25 -0.53125,1.40625 -0.6875,1.84375 -0.109375,0.25 -0.234375,0.578125 -0.234375,0.796875 0,0.46875 0.34375,0.8125 0.8125,0.8125 0.9375,0 1.3125,-1.4375 1.3125,-1.53125 0,-0.109375 -0.09375,-0.109375 -0.125,-0.109375 -0.09375,0 -0.09375,0.03125 -0.140625,0.1875 -0.1875,0.625 -0.515625,1.234375 -1.015625,1.234375 -0.171875,0 -0.25,-0.09375 -0.25,-0.328125 0,-0.25 0.0625,-0.390625 0.296875,-1 z m 0,0"
             id="path5076" />
        </g>
      </g>
    </g>
  </g>
</svg>
