<svg xmlns:xlink="http://www.w3.org/1999/xlink" width="460.8pt" height="345.6pt" viewBox="0 0 460.8 345.6" xmlns="http://www.w3.org/2000/svg" version="1.1">
 <metadata>
  <rdf:rdf xmlns:dc="http://purl.org/dc/elements/1.1/" xmlns:cc="http://creativecommons.org/ns#" xmlns:rdf="http://www.w3.org/1999/02/22-rdf-syntax-ns#">
   <cc:work>
    <dc:type rdf:resource="http://purl.org/dc/dcmitype/StillImage"></dc:type>
    <dc:date>2023-01-17T17:25:19.225334</dc:date>
    <dc:format>image/svg+xml</dc:format>
    <dc:creator>
     <cc:agent>
      <dc:title>Matplotlib v3.6.3, https://matplotlib.org/</dc:title>
     </cc:agent>
    </dc:creator>
   </cc:work>
  </rdf:rdf>
 </metadata>
 <defs>
  <style type="text/css">*{stroke-linejoin: round; stroke-linecap: butt}</style>
 </defs>
 <g id="figure_1">
  <g id="patch_1">
   <path d="M 0 345.6 
L 460.8 345.6 
L 460.8 0 
L 0 0 
z
" style="fill: #ffffff"></path>
  </g>
  <g id="axes_1">
   <g id="patch_2">
    <path d="M 57.6 307.584 
L 414.72 307.584 
L 414.72 41.472 
L 57.6 41.472 
z
" style="fill: #ffffff"></path>
   </g>
   <g id="matplotlib.axis_1">
    <g id="xtick_1">
     <g id="line2d_1">
      <defs>
       <path id="m8eeb8597e9" d="M 0 0 
L 0 3.5 
" style="stroke: #000000; stroke-width: 0.8"></path>
      </defs>
      <g>
       <use xlink:href="#m8eeb8597e9" x="73.832727" y="307.584" style="stroke: #000000; stroke-width: 0.8"></use>
      </g>
     </g>
     <g id="text_1">
      <!-- 0.0 -->
      <g transform="translate(65.881165 322.182437) scale(0.1 -0.1)">
       <defs>
        <path id="DejaVuSans-30" d="M 2034 4250 
Q 1547 4250 1301 3770 
Q 1056 3291 1056 2328 
Q 1056 1369 1301 889 
Q 1547 409 2034 409 
Q 2525 409 2770 889 
Q 3016 1369 3016 2328 
Q 3016 3291 2770 3770 
Q 2525 4250 2034 4250 
z
M 2034 4750 
Q 2819 4750 3233 4129 
Q 3647 3509 3647 2328 
Q 3647 1150 3233 529 
Q 2819 -91 2034 -91 
Q 1250 -91 836 529 
Q 422 1150 422 2328 
Q 422 3509 836 4129 
Q 1250 4750 2034 4750 
z
" transform="scale(0.015625)"></path>
        <path id="DejaVuSans-2e" d="M 684 794 
L 1344 794 
L 1344 0 
L 684 0 
L 684 794 
z
" transform="scale(0.015625)"></path>
       </defs>
       <use xlink:href="#DejaVuSans-30"></use>
       <use xlink:href="#DejaVuSans-2e" x="63.623047"></use>
       <use xlink:href="#DejaVuSans-30" x="95.410156"></use>
      </g>
     </g>
    </g>
    <g id="xtick_2">
     <g id="line2d_2">
      <g>
       <use xlink:href="#m8eeb8597e9" x="138.763636" y="307.584" style="stroke: #000000; stroke-width: 0.8"></use>
      </g>
     </g>
     <g id="text_2">
      <!-- 0.2 -->
      <g transform="translate(130.812074 322.182437) scale(0.1 -0.1)">
       <defs>
        <path id="DejaVuSans-32" d="M 1228 531 
L 3431 531 
L 3431 0 
L 469 0 
L 469 531 
Q 828 903 1448 1529 
Q 2069 2156 2228 2338 
Q 2531 2678 2651 2914 
Q 2772 3150 2772 3378 
Q 2772 3750 2511 3984 
Q 2250 4219 1831 4219 
Q 1534 4219 1204 4116 
Q 875 4013 500 3803 
L 500 4441 
Q 881 4594 1212 4672 
Q 1544 4750 1819 4750 
Q 2544 4750 2975 4387 
Q 3406 4025 3406 3419 
Q 3406 3131 3298 2873 
Q 3191 2616 2906 2266 
Q 2828 2175 2409 1742 
Q 1991 1309 1228 531 
z
" transform="scale(0.015625)"></path>
       </defs>
       <use xlink:href="#DejaVuSans-30"></use>
       <use xlink:href="#DejaVuSans-2e" x="63.623047"></use>
       <use xlink:href="#DejaVuSans-32" x="95.410156"></use>
      </g>
     </g>
    </g>
    <g id="xtick_3">
     <g id="line2d_3">
      <g>
       <use xlink:href="#m8eeb8597e9" x="203.694545" y="307.584" style="stroke: #000000; stroke-width: 0.8"></use>
      </g>
     </g>
     <g id="text_3">
      <!-- 0.4 -->
      <g transform="translate(195.742983 322.182437) scale(0.1 -0.1)">
       <defs>
        <path id="DejaVuSans-34" d="M 2419 4116 
L 825 1625 
L 2419 1625 
L 2419 4116 
z
M 2253 4666 
L 3047 4666 
L 3047 1625 
L 3713 1625 
L 3713 1100 
L 3047 1100 
L 3047 0 
L 2419 0 
L 2419 1100 
L 313 1100 
L 313 1709 
L 2253 4666 
z
" transform="scale(0.015625)"></path>
       </defs>
       <use xlink:href="#DejaVuSans-30"></use>
       <use xlink:href="#DejaVuSans-2e" x="63.623047"></use>
       <use xlink:href="#DejaVuSans-34" x="95.410156"></use>
      </g>
     </g>
    </g>
    <g id="xtick_4">
     <g id="line2d_4">
      <g>
       <use xlink:href="#m8eeb8597e9" x="268.625455" y="307.584" style="stroke: #000000; stroke-width: 0.8"></use>
      </g>
     </g>
     <g id="text_4">
      <!-- 0.6 -->
      <g transform="translate(260.673892 322.182437) scale(0.1 -0.1)">
       <defs>
        <path id="DejaVuSans-36" d="M 2113 2584 
Q 1688 2584 1439 2293 
Q 1191 2003 1191 1497 
Q 1191 994 1439 701 
Q 1688 409 2113 409 
Q 2538 409 2786 701 
Q 3034 994 3034 1497 
Q 3034 2003 2786 2293 
Q 2538 2584 2113 2584 
z
M 3366 4563 
L 3366 3988 
Q 3128 4100 2886 4159 
Q 2644 4219 2406 4219 
Q 1781 4219 1451 3797 
Q 1122 3375 1075 2522 
Q 1259 2794 1537 2939 
Q 1816 3084 2150 3084 
Q 2853 3084 3261 2657 
Q 3669 2231 3669 1497 
Q 3669 778 3244 343 
Q 2819 -91 2113 -91 
Q 1303 -91 875 529 
Q 447 1150 447 2328 
Q 447 3434 972 4092 
Q 1497 4750 2381 4750 
Q 2619 4750 2861 4703 
Q 3103 4656 3366 4563 
z
" transform="scale(0.015625)"></path>
       </defs>
       <use xlink:href="#DejaVuSans-30"></use>
       <use xlink:href="#DejaVuSans-2e" x="63.623047"></use>
       <use xlink:href="#DejaVuSans-36" x="95.410156"></use>
      </g>
     </g>
    </g>
    <g id="xtick_5">
     <g id="line2d_5">
      <g>
       <use xlink:href="#m8eeb8597e9" x="333.556364" y="307.584" style="stroke: #000000; stroke-width: 0.8"></use>
      </g>
     </g>
     <g id="text_5">
      <!-- 0.8 -->
      <g transform="translate(325.604801 322.182437) scale(0.1 -0.1)">
       <defs>
        <path id="DejaVuSans-38" d="M 2034 2216 
Q 1584 2216 1326 1975 
Q 1069 1734 1069 1313 
Q 1069 891 1326 650 
Q 1584 409 2034 409 
Q 2484 409 2743 651 
Q 3003 894 3003 1313 
Q 3003 1734 2745 1975 
Q 2488 2216 2034 2216 
z
M 1403 2484 
Q 997 2584 770 2862 
Q 544 3141 544 3541 
Q 544 4100 942 4425 
Q 1341 4750 2034 4750 
Q 2731 4750 3128 4425 
Q 3525 4100 3525 3541 
Q 3525 3141 3298 2862 
Q 3072 2584 2669 2484 
Q 3125 2378 3379 2068 
Q 3634 1759 3634 1313 
Q 3634 634 3220 271 
Q 2806 -91 2034 -91 
Q 1263 -91 848 271 
Q 434 634 434 1313 
Q 434 1759 690 2068 
Q 947 2378 1403 2484 
z
M 1172 3481 
Q 1172 3119 1398 2916 
Q 1625 2713 2034 2713 
Q 2441 2713 2670 2916 
Q 2900 3119 2900 3481 
Q 2900 3844 2670 4047 
Q 2441 4250 2034 4250 
Q 1625 4250 1398 4047 
Q 1172 3844 1172 3481 
z
" transform="scale(0.015625)"></path>
       </defs>
       <use xlink:href="#DejaVuSans-30"></use>
       <use xlink:href="#DejaVuSans-2e" x="63.623047"></use>
       <use xlink:href="#DejaVuSans-38" x="95.410156"></use>
      </g>
     </g>
    </g>
    <g id="xtick_6">
     <g id="line2d_6">
      <g>
       <use xlink:href="#m8eeb8597e9" x="398.487273" y="307.584" style="stroke: #000000; stroke-width: 0.8"></use>
      </g>
     </g>
     <g id="text_6">
      <!-- 1.0 -->
      <g transform="translate(390.53571 322.182437) scale(0.1 -0.1)">
       <defs>
        <path id="DejaVuSans-31" d="M 794 531 
L 1825 531 
L 1825 4091 
L 703 3866 
L 703 4441 
L 1819 4666 
L 2450 4666 
L 2450 531 
L 3481 531 
L 3481 0 
L 794 0 
L 794 531 
z
" transform="scale(0.015625)"></path>
       </defs>
       <use xlink:href="#DejaVuSans-31"></use>
       <use xlink:href="#DejaVuSans-2e" x="63.623047"></use>
       <use xlink:href="#DejaVuSans-30" x="95.410156"></use>
      </g>
     </g>
    </g>
    <g id="text_7">
     <!-- Relative Distance from Core -->
     <g transform="translate(166.163125 335.860562) scale(0.1 -0.1)">
      <defs>
       <path id="DejaVuSans-52" d="M 2841 2188 
Q 3044 2119 3236 1894 
Q 3428 1669 3622 1275 
L 4263 0 
L 3584 0 
L 2988 1197 
Q 2756 1666 2539 1819 
Q 2322 1972 1947 1972 
L 1259 1972 
L 1259 0 
L 628 0 
L 628 4666 
L 2053 4666 
Q 2853 4666 3247 4331 
Q 3641 3997 3641 3322 
Q 3641 2881 3436 2590 
Q 3231 2300 2841 2188 
z
M 1259 4147 
L 1259 2491 
L 2053 2491 
Q 2509 2491 2742 2702 
Q 2975 2913 2975 3322 
Q 2975 3731 2742 3939 
Q 2509 4147 2053 4147 
L 1259 4147 
z
" transform="scale(0.015625)"></path>
       <path id="DejaVuSans-65" d="M 3597 1894 
L 3597 1613 
L 953 1613 
Q 991 1019 1311 708 
Q 1631 397 2203 397 
Q 2534 397 2845 478 
Q 3156 559 3463 722 
L 3463 178 
Q 3153 47 2828 -22 
Q 2503 -91 2169 -91 
Q 1331 -91 842 396 
Q 353 884 353 1716 
Q 353 2575 817 3079 
Q 1281 3584 2069 3584 
Q 2775 3584 3186 3129 
Q 3597 2675 3597 1894 
z
M 3022 2063 
Q 3016 2534 2758 2815 
Q 2500 3097 2075 3097 
Q 1594 3097 1305 2825 
Q 1016 2553 972 2059 
L 3022 2063 
z
" transform="scale(0.015625)"></path>
       <path id="DejaVuSans-6c" d="M 603 4863 
L 1178 4863 
L 1178 0 
L 603 0 
L 603 4863 
z
" transform="scale(0.015625)"></path>
       <path id="DejaVuSans-61" d="M 2194 1759 
Q 1497 1759 1228 1600 
Q 959 1441 959 1056 
Q 959 750 1161 570 
Q 1363 391 1709 391 
Q 2188 391 2477 730 
Q 2766 1069 2766 1631 
L 2766 1759 
L 2194 1759 
z
M 3341 1997 
L 3341 0 
L 2766 0 
L 2766 531 
Q 2569 213 2275 61 
Q 1981 -91 1556 -91 
Q 1019 -91 701 211 
Q 384 513 384 1019 
Q 384 1609 779 1909 
Q 1175 2209 1959 2209 
L 2766 2209 
L 2766 2266 
Q 2766 2663 2505 2880 
Q 2244 3097 1772 3097 
Q 1472 3097 1187 3025 
Q 903 2953 641 2809 
L 641 3341 
Q 956 3463 1253 3523 
Q 1550 3584 1831 3584 
Q 2591 3584 2966 3190 
Q 3341 2797 3341 1997 
z
" transform="scale(0.015625)"></path>
       <path id="DejaVuSans-74" d="M 1172 4494 
L 1172 3500 
L 2356 3500 
L 2356 3053 
L 1172 3053 
L 1172 1153 
Q 1172 725 1289 603 
Q 1406 481 1766 481 
L 2356 481 
L 2356 0 
L 1766 0 
Q 1100 0 847 248 
Q 594 497 594 1153 
L 594 3053 
L 172 3053 
L 172 3500 
L 594 3500 
L 594 4494 
L 1172 4494 
z
" transform="scale(0.015625)"></path>
       <path id="DejaVuSans-69" d="M 603 3500 
L 1178 3500 
L 1178 0 
L 603 0 
L 603 3500 
z
M 603 4863 
L 1178 4863 
L 1178 4134 
L 603 4134 
L 603 4863 
z
" transform="scale(0.015625)"></path>
       <path id="DejaVuSans-76" d="M 191 3500 
L 800 3500 
L 1894 563 
L 2988 3500 
L 3597 3500 
L 2284 0 
L 1503 0 
L 191 3500 
z
" transform="scale(0.015625)"></path>
       <path id="DejaVuSans-20" transform="scale(0.015625)"></path>
       <path id="DejaVuSans-44" d="M 1259 4147 
L 1259 519 
L 2022 519 
Q 2988 519 3436 956 
Q 3884 1394 3884 2338 
Q 3884 3275 3436 3711 
Q 2988 4147 2022 4147 
L 1259 4147 
z
M 628 4666 
L 1925 4666 
Q 3281 4666 3915 4102 
Q 4550 3538 4550 2338 
Q 4550 1131 3912 565 
Q 3275 0 1925 0 
L 628 0 
L 628 4666 
z
" transform="scale(0.015625)"></path>
       <path id="DejaVuSans-73" d="M 2834 3397 
L 2834 2853 
Q 2591 2978 2328 3040 
Q 2066 3103 1784 3103 
Q 1356 3103 1142 2972 
Q 928 2841 928 2578 
Q 928 2378 1081 2264 
Q 1234 2150 1697 2047 
L 1894 2003 
Q 2506 1872 2764 1633 
Q 3022 1394 3022 966 
Q 3022 478 2636 193 
Q 2250 -91 1575 -91 
Q 1294 -91 989 -36 
Q 684 19 347 128 
L 347 722 
Q 666 556 975 473 
Q 1284 391 1588 391 
Q 1994 391 2212 530 
Q 2431 669 2431 922 
Q 2431 1156 2273 1281 
Q 2116 1406 1581 1522 
L 1381 1569 
Q 847 1681 609 1914 
Q 372 2147 372 2553 
Q 372 3047 722 3315 
Q 1072 3584 1716 3584 
Q 2034 3584 2315 3537 
Q 2597 3491 2834 3397 
z
" transform="scale(0.015625)"></path>
       <path id="DejaVuSans-6e" d="M 3513 2113 
L 3513 0 
L 2938 0 
L 2938 2094 
Q 2938 2591 2744 2837 
Q 2550 3084 2163 3084 
Q 1697 3084 1428 2787 
Q 1159 2491 1159 1978 
L 1159 0 
L 581 0 
L 581 3500 
L 1159 3500 
L 1159 2956 
Q 1366 3272 1645 3428 
Q 1925 3584 2291 3584 
Q 2894 3584 3203 3211 
Q 3513 2838 3513 2113 
z
" transform="scale(0.015625)"></path>
       <path id="DejaVuSans-63" d="M 3122 3366 
L 3122 2828 
Q 2878 2963 2633 3030 
Q 2388 3097 2138 3097 
Q 1578 3097 1268 2742 
Q 959 2388 959 1747 
Q 959 1106 1268 751 
Q 1578 397 2138 397 
Q 2388 397 2633 464 
Q 2878 531 3122 666 
L 3122 134 
Q 2881 22 2623 -34 
Q 2366 -91 2075 -91 
Q 1284 -91 818 406 
Q 353 903 353 1747 
Q 353 2603 823 3093 
Q 1294 3584 2113 3584 
Q 2378 3584 2631 3529 
Q 2884 3475 3122 3366 
z
" transform="scale(0.015625)"></path>
       <path id="DejaVuSans-66" d="M 2375 4863 
L 2375 4384 
L 1825 4384 
Q 1516 4384 1395 4259 
Q 1275 4134 1275 3809 
L 1275 3500 
L 2222 3500 
L 2222 3053 
L 1275 3053 
L 1275 0 
L 697 0 
L 697 3053 
L 147 3053 
L 147 3500 
L 697 3500 
L 697 3744 
Q 697 4328 969 4595 
Q 1241 4863 1831 4863 
L 2375 4863 
z
" transform="scale(0.015625)"></path>
       <path id="DejaVuSans-72" d="M 2631 2963 
Q 2534 3019 2420 3045 
Q 2306 3072 2169 3072 
Q 1681 3072 1420 2755 
Q 1159 2438 1159 1844 
L 1159 0 
L 581 0 
L 581 3500 
L 1159 3500 
L 1159 2956 
Q 1341 3275 1631 3429 
Q 1922 3584 2338 3584 
Q 2397 3584 2469 3576 
Q 2541 3569 2628 3553 
L 2631 2963 
z
" transform="scale(0.015625)"></path>
       <path id="DejaVuSans-6f" d="M 1959 3097 
Q 1497 3097 1228 2736 
Q 959 2375 959 1747 
Q 959 1119 1226 758 
Q 1494 397 1959 397 
Q 2419 397 2687 759 
Q 2956 1122 2956 1747 
Q 2956 2369 2687 2733 
Q 2419 3097 1959 3097 
z
M 1959 3584 
Q 2709 3584 3137 3096 
Q 3566 2609 3566 1747 
Q 3566 888 3137 398 
Q 2709 -91 1959 -91 
Q 1206 -91 779 398 
Q 353 888 353 1747 
Q 353 2609 779 3096 
Q 1206 3584 1959 3584 
z
" transform="scale(0.015625)"></path>
       <path id="DejaVuSans-6d" d="M 3328 2828 
Q 3544 3216 3844 3400 
Q 4144 3584 4550 3584 
Q 5097 3584 5394 3201 
Q 5691 2819 5691 2113 
L 5691 0 
L 5113 0 
L 5113 2094 
Q 5113 2597 4934 2840 
Q 4756 3084 4391 3084 
Q 3944 3084 3684 2787 
Q 3425 2491 3425 1978 
L 3425 0 
L 2847 0 
L 2847 2094 
Q 2847 2600 2669 2842 
Q 2491 3084 2119 3084 
Q 1678 3084 1418 2786 
Q 1159 2488 1159 1978 
L 1159 0 
L 581 0 
L 581 3500 
L 1159 3500 
L 1159 2956 
Q 1356 3278 1631 3431 
Q 1906 3584 2284 3584 
Q 2666 3584 2933 3390 
Q 3200 3197 3328 2828 
z
" transform="scale(0.015625)"></path>
       <path id="DejaVuSans-43" d="M 4122 4306 
L 4122 3641 
Q 3803 3938 3442 4084 
Q 3081 4231 2675 4231 
Q 1875 4231 1450 3742 
Q 1025 3253 1025 2328 
Q 1025 1406 1450 917 
Q 1875 428 2675 428 
Q 3081 428 3442 575 
Q 3803 722 4122 1019 
L 4122 359 
Q 3791 134 3420 21 
Q 3050 -91 2638 -91 
Q 1578 -91 968 557 
Q 359 1206 359 2328 
Q 359 3453 968 4101 
Q 1578 4750 2638 4750 
Q 3056 4750 3426 4639 
Q 3797 4528 4122 4306 
z
" transform="scale(0.015625)"></path>
      </defs>
      <use xlink:href="#DejaVuSans-52"></use>
      <use xlink:href="#DejaVuSans-65" x="64.982422"></use>
      <use xlink:href="#DejaVuSans-6c" x="126.505859"></use>
      <use xlink:href="#DejaVuSans-61" x="154.289062"></use>
      <use xlink:href="#DejaVuSans-74" x="215.568359"></use>
      <use xlink:href="#DejaVuSans-69" x="254.777344"></use>
      <use xlink:href="#DejaVuSans-76" x="282.560547"></use>
      <use xlink:href="#DejaVuSans-65" x="341.740234"></use>
      <use xlink:href="#DejaVuSans-20" x="403.263672"></use>
      <use xlink:href="#DejaVuSans-44" x="435.050781"></use>
      <use xlink:href="#DejaVuSans-69" x="512.052734"></use>
      <use xlink:href="#DejaVuSans-73" x="539.835938"></use>
      <use xlink:href="#DejaVuSans-74" x="591.935547"></use>
      <use xlink:href="#DejaVuSans-61" x="631.144531"></use>
      <use xlink:href="#DejaVuSans-6e" x="692.423828"></use>
      <use xlink:href="#DejaVuSans-63" x="755.802734"></use>
      <use xlink:href="#DejaVuSans-65" x="810.783203"></use>
      <use xlink:href="#DejaVuSans-20" x="872.306641"></use>
      <use xlink:href="#DejaVuSans-66" x="904.09375"></use>
      <use xlink:href="#DejaVuSans-72" x="939.298828"></use>
      <use xlink:href="#DejaVuSans-6f" x="978.162109"></use>
      <use xlink:href="#DejaVuSans-6d" x="1039.34375"></use>
      <use xlink:href="#DejaVuSans-20" x="1136.755859"></use>
      <use xlink:href="#DejaVuSans-43" x="1168.542969"></use>
      <use xlink:href="#DejaVuSans-6f" x="1238.367188"></use>
      <use xlink:href="#DejaVuSans-72" x="1299.548828"></use>
      <use xlink:href="#DejaVuSans-65" x="1338.412109"></use>
     </g>
    </g>
   </g>
   <g id="matplotlib.axis_2">
    <g id="ytick_1">
     <g id="line2d_7">
      <defs>
       <path id="md758bfe509" d="M 0 0 
L -3.5 0 
" style="stroke: #000000; stroke-width: 0.8"></path>
      </defs>
      <g>
       <use xlink:href="#md758bfe509" x="57.6" y="286.982987" style="stroke: #000000; stroke-width: 0.8"></use>
      </g>
     </g>
     <g id="text_8">
      <!-- 1100 -->
      <g transform="translate(25.15 290.782206) scale(0.1 -0.1)">
       <use xlink:href="#DejaVuSans-31"></use>
       <use xlink:href="#DejaVuSans-31" x="63.623047"></use>
       <use xlink:href="#DejaVuSans-30" x="127.246094"></use>
       <use xlink:href="#DejaVuSans-30" x="190.869141"></use>
      </g>
     </g>
    </g>
    <g id="ytick_2">
     <g id="line2d_8">
      <g>
       <use xlink:href="#md758bfe509" x="57.6" y="229.938673" style="stroke: #000000; stroke-width: 0.8"></use>
      </g>
     </g>
     <g id="text_9">
      <!-- 1200 -->
      <g transform="translate(25.15 233.737892) scale(0.1 -0.1)">
       <use xlink:href="#DejaVuSans-31"></use>
       <use xlink:href="#DejaVuSans-32" x="63.623047"></use>
       <use xlink:href="#DejaVuSans-30" x="127.246094"></use>
       <use xlink:href="#DejaVuSans-30" x="190.869141"></use>
      </g>
     </g>
    </g>
    <g id="ytick_3">
     <g id="line2d_9">
      <g>
       <use xlink:href="#md758bfe509" x="57.6" y="172.89436" style="stroke: #000000; stroke-width: 0.8"></use>
      </g>
     </g>
     <g id="text_10">
      <!-- 1300 -->
      <g transform="translate(25.15 176.693578) scale(0.1 -0.1)">
       <defs>
        <path id="DejaVuSans-33" d="M 2597 2516 
Q 3050 2419 3304 2112 
Q 3559 1806 3559 1356 
Q 3559 666 3084 287 
Q 2609 -91 1734 -91 
Q 1441 -91 1130 -33 
Q 819 25 488 141 
L 488 750 
Q 750 597 1062 519 
Q 1375 441 1716 441 
Q 2309 441 2620 675 
Q 2931 909 2931 1356 
Q 2931 1769 2642 2001 
Q 2353 2234 1838 2234 
L 1294 2234 
L 1294 2753 
L 1863 2753 
Q 2328 2753 2575 2939 
Q 2822 3125 2822 3475 
Q 2822 3834 2567 4026 
Q 2313 4219 1838 4219 
Q 1578 4219 1281 4162 
Q 984 4106 628 3988 
L 628 4550 
Q 988 4650 1302 4700 
Q 1616 4750 1894 4750 
Q 2613 4750 3031 4423 
Q 3450 4097 3450 3541 
Q 3450 3153 3228 2886 
Q 3006 2619 2597 2516 
z
" transform="scale(0.015625)"></path>
       </defs>
       <use xlink:href="#DejaVuSans-31"></use>
       <use xlink:href="#DejaVuSans-33" x="63.623047"></use>
       <use xlink:href="#DejaVuSans-30" x="127.246094"></use>
       <use xlink:href="#DejaVuSans-30" x="190.869141"></use>
      </g>
     </g>
    </g>
    <g id="ytick_4">
     <g id="line2d_10">
      <g>
       <use xlink:href="#md758bfe509" x="57.6" y="115.850046" style="stroke: #000000; stroke-width: 0.8"></use>
      </g>
     </g>
     <g id="text_11">
      <!-- 1400 -->
      <g transform="translate(25.15 119.649264) scale(0.1 -0.1)">
       <use xlink:href="#DejaVuSans-31"></use>
       <use xlink:href="#DejaVuSans-34" x="63.623047"></use>
       <use xlink:href="#DejaVuSans-30" x="127.246094"></use>
       <use xlink:href="#DejaVuSans-30" x="190.869141"></use>
      </g>
     </g>
    </g>
    <g id="ytick_5">
     <g id="line2d_11">
      <g>
       <use xlink:href="#md758bfe509" x="57.6" y="58.805732" style="stroke: #000000; stroke-width: 0.8"></use>
      </g>
     </g>
     <g id="text_12">
      <!-- 1500 -->
      <g transform="translate(25.15 62.604951) scale(0.1 -0.1)">
       <defs>
        <path id="DejaVuSans-35" d="M 691 4666 
L 3169 4666 
L 3169 4134 
L 1269 4134 
L 1269 2991 
Q 1406 3038 1543 3061 
Q 1681 3084 1819 3084 
Q 2600 3084 3056 2656 
Q 3513 2228 3513 1497 
Q 3513 744 3044 326 
Q 2575 -91 1722 -91 
Q 1428 -91 1123 -41 
Q 819 9 494 109 
L 494 744 
Q 775 591 1075 516 
Q 1375 441 1709 441 
Q 2250 441 2565 725 
Q 2881 1009 2881 1497 
Q 2881 1984 2565 2268 
Q 2250 2553 1709 2553 
Q 1456 2553 1204 2497 
Q 953 2441 691 2322 
L 691 4666 
z
" transform="scale(0.015625)"></path>
       </defs>
       <use xlink:href="#DejaVuSans-31"></use>
       <use xlink:href="#DejaVuSans-35" x="63.623047"></use>
       <use xlink:href="#DejaVuSans-30" x="127.246094"></use>
       <use xlink:href="#DejaVuSans-30" x="190.869141"></use>
      </g>
     </g>
    </g>
    <g id="text_13">
     <!-- Temperature -->
     <g transform="translate(19.070312 206.197531) rotate(-90) scale(0.1 -0.1)">
      <defs>
       <path id="DejaVuSans-54" d="M -19 4666 
L 3928 4666 
L 3928 4134 
L 2272 4134 
L 2272 0 
L 1638 0 
L 1638 4134 
L -19 4134 
L -19 4666 
z
" transform="scale(0.015625)"></path>
       <path id="DejaVuSans-70" d="M 1159 525 
L 1159 -1331 
L 581 -1331 
L 581 3500 
L 1159 3500 
L 1159 2969 
Q 1341 3281 1617 3432 
Q 1894 3584 2278 3584 
Q 2916 3584 3314 3078 
Q 3713 2572 3713 1747 
Q 3713 922 3314 415 
Q 2916 -91 2278 -91 
Q 1894 -91 1617 61 
Q 1341 213 1159 525 
z
M 3116 1747 
Q 3116 2381 2855 2742 
Q 2594 3103 2138 3103 
Q 1681 3103 1420 2742 
Q 1159 2381 1159 1747 
Q 1159 1113 1420 752 
Q 1681 391 2138 391 
Q 2594 391 2855 752 
Q 3116 1113 3116 1747 
z
" transform="scale(0.015625)"></path>
       <path id="DejaVuSans-75" d="M 544 1381 
L 544 3500 
L 1119 3500 
L 1119 1403 
Q 1119 906 1312 657 
Q 1506 409 1894 409 
Q 2359 409 2629 706 
Q 2900 1003 2900 1516 
L 2900 3500 
L 3475 3500 
L 3475 0 
L 2900 0 
L 2900 538 
Q 2691 219 2414 64 
Q 2138 -91 1772 -91 
Q 1169 -91 856 284 
Q 544 659 544 1381 
z
M 1991 3584 
L 1991 3584 
z
" transform="scale(0.015625)"></path>
      </defs>
      <use xlink:href="#DejaVuSans-54"></use>
      <use xlink:href="#DejaVuSans-65" x="44.083984"></use>
      <use xlink:href="#DejaVuSans-6d" x="105.607422"></use>
      <use xlink:href="#DejaVuSans-70" x="203.019531"></use>
      <use xlink:href="#DejaVuSans-65" x="266.496094"></use>
      <use xlink:href="#DejaVuSans-72" x="328.019531"></use>
      <use xlink:href="#DejaVuSans-61" x="369.132812"></use>
      <use xlink:href="#DejaVuSans-74" x="430.412109"></use>
      <use xlink:href="#DejaVuSans-75" x="469.621094"></use>
      <use xlink:href="#DejaVuSans-72" x="533"></use>
      <use xlink:href="#DejaVuSans-65" x="571.863281"></use>
     </g>
    </g>
   </g>
   <g id="line2d_12">
    <path d="M 73.832727 63.715332 
L 104.752208 63.757595 
L 135.671688 63.93361 
L 166.591169 64.443644 
L 197.510649 65.733581 
L 228.43013 68.582184 
L 259.34961 73.987975 
L 290.269091 82.647261 
L 321.188571 94.114294 
L 352.108052 106.328113 
L 383.027532 116.370556 
L 398.487273 206.766917 
" clip-path="url(#p5e2e39362e)" style="fill: none; stroke: #b40426; stroke-width: 1.5; stroke-linecap: square"></path>
   </g>
   <g id="line2d_13">
    <path d="M 73.832727 63.199947 
L 104.752208 63.245795 
L 135.671688 63.434566 
L 166.591169 63.972494 
L 197.510649 65.310805 
L 228.43013 68.222864 
L 259.34961 73.679306 
L 290.269091 82.329838 
L 321.188571 93.698844 
L 352.108052 105.759114 
L 383.027532 124.602734 
L 398.487273 213.819687 
" clip-path="url(#p5e2e39362e)" style="fill: none; stroke: #c53334; stroke-width: 1.5; stroke-linecap: square"></path>
   </g>
   <g id="line2d_14">
    <path d="M 73.832727 62.685258 
L 104.752208 62.734838 
L 135.671688 62.93675 
L 166.591169 63.502955 
L 197.510649 64.88944 
L 228.43013 67.863476 
L 259.34961 73.367921 
L 290.269091 82.00771 
L 321.188571 93.279934 
L 352.108052 105.648328 
L 383.027532 132.308577 
L 398.487273 220.42153 
" clip-path="url(#p5e2e39362e)" style="fill: none; stroke: #d55042; stroke-width: 1.5; stroke-linecap: square"></path>
   </g>
   <g id="line2d_15">
    <path d="M 73.832727 62.171294 
L 104.752208 62.224748 
L 135.671688 62.440173 
L 166.591169 63.035001 
L 197.510649 64.469414 
L 228.43013 67.503944 
L 259.34961 73.053834 
L 290.269091 81.68103 
L 321.188571 92.881329 
L 352.108052 105.924108 
L 383.027532 139.541199 
L 398.487273 226.617949 
" clip-path="url(#p5e2e39362e)" style="fill: none; stroke: #e26952; stroke-width: 1.5; stroke-linecap: square"></path>
   </g>
   <g id="line2d_16">
    <path d="M 73.832727 61.658083 
L 104.752208 61.715548 
L 135.671688 61.94484 
L 166.591169 62.568605 
L 197.510649 64.050657 
L 228.43013 67.144196 
L 259.34961 72.737062 
L 290.269091 81.351175 
L 321.188571 92.520797 
L 352.108052 106.525581 
L 383.027532 146.347181 
L 398.487273 232.448852 
" clip-path="url(#p5e2e39362e)" style="fill: none; stroke: #ec7f63; stroke-width: 1.5; stroke-linecap: square"></path>
   </g>
   <g id="line2d_17">
    <path d="M 73.832727 61.145651 
L 104.752208 61.20726 
L 135.671688 61.45076 
L 166.591169 62.103737 
L 197.510649 63.633099 
L 228.43013 66.784164 
L 259.34961 72.417688 
L 290.269091 81.020314 
L 321.188571 92.211301 
L 352.108052 107.400988 
L 383.027532 152.767468 
L 398.487273 237.949317 
" clip-path="url(#p5e2e39362e)" style="fill: none; stroke: #f39475; stroke-width: 1.5; stroke-linecap: square"></path>
   </g>
   <g id="line2d_18">
    <path d="M 73.832727 60.634024 
L 104.752208 60.699907 
L 135.671688 60.957935 
L 166.591169 61.640367 
L 197.510649 63.216673 
L 228.43013 66.42379 
L 259.34961 72.095899 
L 290.269091 80.691083 
L 321.188571 91.961973 
L 352.108052 108.506293 
L 383.027532 158.838127 
L 398.487273 243.150245 
" clip-path="url(#p5e2e39362e)" style="fill: none; stroke: #f7a889; stroke-width: 1.5; stroke-linecap: square"></path>
   </g>
   <g id="line2d_19">
    <path d="M 73.832727 60.123227 
L 104.752208 60.193509 
L 135.671688 60.466369 
L 166.591169 61.178464 
L 197.510649 62.801315 
L 228.43013 66.063027 
L 259.34961 71.772002 
L 290.269091 80.366345 
L 321.188571 91.778906 
L 352.108052 109.804001 
L 383.027532 164.591003 
L 398.487273 248.078919 
" clip-path="url(#p5e2e39362e)" style="fill: none; stroke: #f7b89c; stroke-width: 1.5; stroke-linecap: square"></path>
   </g>
   <g id="line2d_20">
    <path d="M 73.832727 59.613285 
L 104.752208 59.688084 
L 135.671688 59.976063 
L 166.591169 60.717999 
L 197.510649 62.386962 
L 228.43013 65.701847 
L 259.34961 71.446419 
L 290.269091 80.049016 
L 321.188571 91.665795 
L 352.108052 111.262174 
L 383.027532 170.054279 
L 398.487273 252.759482 
" clip-path="url(#p5e2e39362e)" style="fill: none; stroke: #f4c6af; stroke-width: 1.5; stroke-linecap: square"></path>
   </g>
   <g id="line2d_21">
    <path d="M 73.832727 59.10422 
L 104.752208 59.183651 
L 135.671688 59.487018 
L 166.591169 60.258938 
L 197.510649 61.973555 
L 228.43013 65.340245 
L 259.34961 71.119685 
L 290.269091 79.741942 
L 321.188571 91.624465 
L 352.108052 112.853589 
L 383.027532 175.25295 
L 398.487273 257.21335 
" clip-path="url(#p5e2e39362e)" style="fill: none; stroke: #edd1c2; stroke-width: 1.5; stroke-linecap: square"></path>
   </g>
   <g id="line2d_22">
    <path d="M 73.832727 58.596055 
L 104.752208 58.680226 
L 135.671688 58.999233 
L 166.591169 59.801251 
L 197.510649 61.561038 
L 228.43013 64.978241 
L 259.34961 70.792434 
L 290.269091 79.447808 
L 321.188571 91.655285 
L 352.108052 114.555033 
L 383.027532 180.209236 
L 398.487273 261.459559 
" clip-path="url(#p5e2e39362e)" style="fill: none; stroke: #e3d9d3; stroke-width: 1.5; stroke-linecap: square"></path>
   </g>
   <g id="line2d_23">
    <path d="M 73.832727 58.08881 
L 104.752208 58.177826 
L 135.671688 58.512706 
L 166.591169 59.344904 
L 197.510649 61.149362 
L 228.43013 64.615886 
L 259.34961 70.465378 
L 290.269091 79.16909 
L 321.188571 91.757513 
L 352.108052 116.346702 
L 383.027532 184.94294 
L 398.487273 265.515075 
" clip-path="url(#p5e2e39362e)" style="fill: none; stroke: #d6dce4; stroke-width: 1.5; stroke-linecap: square"></path>
   </g>
   <g id="line2d_24">
    <path d="M 73.832727 57.582507 
L 104.752208 57.676464 
L 135.671688 58.027432 
L 166.591169 58.889868 
L 197.510649 60.738481 
L 228.43013 64.253261 
L 259.34961 70.139293 
L 290.269091 78.908013 
L 321.188571 91.929572 
L 352.108052 118.211699 
L 383.027532 189.471744 
L 398.487273 269.395046 
" clip-path="url(#p5e2e39362e)" style="fill: none; stroke: #c9d7f0; stroke-width: 1.5; stroke-linecap: square"></path>
   </g>
   <g id="line2d_25">
    <path d="M 73.832727 57.077164 
L 104.752208 57.176154 
L 135.671688 57.543408 
L 166.591169 58.436109 
L 197.510649 60.328361 
L 228.43013 63.890479 
L 259.34961 69.815002 
L 290.269091 78.666543 
L 321.188571 92.169266 
L 352.108052 120.1356 
L 383.027532 193.811479 
L 398.487273 273.113036 
" clip-path="url(#p5e2e39362e)" style="fill: none; stroke: #bad0f8; stroke-width: 1.5; stroke-linecap: square"></path>
   </g>
   <g id="line2d_26">
    <path d="M 73.832727 56.572798 
L 104.752208 56.676909 
L 135.671688 57.060628 
L 166.591169 57.983598 
L 197.510649 59.918973 
L 228.43013 63.527684 
L 259.34961 69.493355 
L 290.269091 78.446374 
L 321.188571 92.473957 
L 352.108052 122.106094 
L 383.027532 197.976347 
L 398.487273 276.681212 
" clip-path="url(#p5e2e39362e)" style="fill: none; stroke: #aac7fd; stroke-width: 1.5; stroke-linecap: square"></path>
   </g>
   <g id="line2d_27">
    <path d="M 73.832727 56.069427 
L 104.752208 56.178738 
L 135.671688 56.579086 
L 166.591169 57.532305 
L 197.510649 59.510298 
L 228.43013 63.16505 
L 259.34961 69.175215 
L 290.269091 78.248939 
L 321.188571 92.840707 
L 352.108052 124.112672 
L 383.027532 201.979122 
L 398.487273 280.110518 
" clip-path="url(#p5e2e39362e)" style="fill: none; stroke: #9abbff; stroke-width: 1.5; stroke-linecap: square"></path>
   </g>
   <g id="line2d_28">
    <path d="M 73.832727 55.567067 
L 104.752208 55.681653 
L 135.671688 56.098775 
L 166.591169 57.082203 
L 197.510649 59.102328 
L 228.43013 62.802781 
L 259.34961 68.861445 
L 290.269091 78.075417 
L 321.188571 93.266384 
L 352.108052 126.146368 
L 383.027532 205.831315 
L 398.487273 283.410815 
" clip-path="url(#p5e2e39362e)" style="fill: none; stroke: #88abfd; stroke-width: 1.5; stroke-linecap: square"></path>
   </g>
   <g id="line2d_29">
    <path d="M 73.832727 55.065731 
L 104.752208 55.185661 
L 135.671688 55.619686 
L 166.591169 56.633266 
L 197.510649 58.695064 
L 228.43013 62.441106 
L 259.34961 68.552894 
L 290.269091 77.926749 
L 321.188571 93.747754 
L 352.108052 128.19953 
L 383.027532 209.543324 
L 398.487273 286.591012 
" clip-path="url(#p5e2e39362e)" style="fill: none; stroke: #779af7; stroke-width: 1.5; stroke-linecap: square"></path>
   </g>
   <g id="line2d_30">
    <path d="M 73.832727 54.565433 
L 104.752208 54.690771 
L 135.671688 55.141812 
L 166.591169 56.185469 
L 197.510649 58.28852 
L 228.43013 62.080276 
L 259.34961 68.25039 
L 290.269091 77.803654 
L 321.188571 94.281543 
L 352.108052 130.265636 
L 383.027532 213.124563 
L 398.487273 289.659174 
" clip-path="url(#p5e2e39362e)" style="fill: none; stroke: #6788ee; stroke-width: 1.5; stroke-linecap: square"></path>
   </g>
   <g id="line2d_31">
    <path d="M 73.832727 54.066186 
L 104.752208 54.196989 
L 135.671688 54.665144 
L 166.591169 55.738792 
L 197.510649 57.88272 
L 228.43013 61.720563 
L 259.34961 67.954729 
L 290.269091 77.706648 
L 321.188571 94.864491 
L 352.108052 132.33913 
L 383.027532 216.583573 
L 398.487273 292.622619 
" clip-path="url(#p5e2e39362e)" style="fill: none; stroke: #5875e1; stroke-width: 1.5; stroke-linecap: square"></path>
   </g>
   <g id="line2d_32">
    <path d="M 73.832727 53.568 
L 104.752208 53.704321 
L 135.671688 54.189674 
L 166.591169 55.293218 
L 197.510649 57.477702 
L 228.43013 61.362258 
L 259.34961 67.666667 
L 290.269091 77.636064 
L 321.188571 95.493393 
L 352.108052 134.415282 
L 383.027532 219.928121 
L 398.487273 295.488 
" clip-path="url(#p5e2e39362e)" style="fill: none; stroke: #4961d2; stroke-width: 1.5; stroke-linecap: square"></path>
   </g>
   <g id="line2d_33">
    <path d="M 73.832727 53.568 
L 104.752208 53.704321 
L 135.671688 54.189674 
L 166.591169 55.293218 
L 197.510649 57.477702 
L 228.43013 61.362258 
L 259.34961 67.666667 
L 290.269091 77.636064 
L 321.188571 95.493393 
L 352.108052 134.415282 
L 383.027532 219.928121 
L 398.487273 288.202753 
" clip-path="url(#p5e2e39362e)" style="fill: none; stroke: #3b4cc0; stroke-width: 1.5; stroke-linecap: square"></path>
   </g>
   <g id="patch_3">
    <path d="M 57.6 307.584 
L 57.6 41.472 
" style="fill: none; stroke: #000000; stroke-width: 0.8; stroke-linejoin: miter; stroke-linecap: square"></path>
   </g>
   <g id="patch_4">
    <path d="M 414.72 307.584 
L 414.72 41.472 
" style="fill: none; stroke: #000000; stroke-width: 0.8; stroke-linejoin: miter; stroke-linecap: square"></path>
   </g>
   <g id="patch_5">
    <path d="M 57.6 307.584 
L 414.72 307.584 
" style="fill: none; stroke: #000000; stroke-width: 0.8; stroke-linejoin: miter; stroke-linecap: square"></path>
   </g>
   <g id="patch_6">
    <path d="M 57.6 41.472 
L 414.72 41.472 
" style="fill: none; stroke: #000000; stroke-width: 0.8; stroke-linejoin: miter; stroke-linecap: square"></path>
   </g>
   <g id="text_14">
    <!-- Radial Temperature Profile Evolution -->
    <g transform="translate(127.275937 35.472) scale(0.12 -0.12)">
     <defs>
      <path id="DejaVuSans-64" d="M 2906 2969 
L 2906 4863 
L 3481 4863 
L 3481 0 
L 2906 0 
L 2906 525 
Q 2725 213 2448 61 
Q 2172 -91 1784 -91 
Q 1150 -91 751 415 
Q 353 922 353 1747 
Q 353 2572 751 3078 
Q 1150 3584 1784 3584 
Q 2172 3584 2448 3432 
Q 2725 3281 2906 2969 
z
M 947 1747 
Q 947 1113 1208 752 
Q 1469 391 1925 391 
Q 2381 391 2643 752 
Q 2906 1113 2906 1747 
Q 2906 2381 2643 2742 
Q 2381 3103 1925 3103 
Q 1469 3103 1208 2742 
Q 947 2381 947 1747 
z
" transform="scale(0.015625)"></path>
      <path id="DejaVuSans-50" d="M 1259 4147 
L 1259 2394 
L 2053 2394 
Q 2494 2394 2734 2622 
Q 2975 2850 2975 3272 
Q 2975 3691 2734 3919 
Q 2494 4147 2053 4147 
L 1259 4147 
z
M 628 4666 
L 2053 4666 
Q 2838 4666 3239 4311 
Q 3641 3956 3641 3272 
Q 3641 2581 3239 2228 
Q 2838 1875 2053 1875 
L 1259 1875 
L 1259 0 
L 628 0 
L 628 4666 
z
" transform="scale(0.015625)"></path>
      <path id="DejaVuSans-45" d="M 628 4666 
L 3578 4666 
L 3578 4134 
L 1259 4134 
L 1259 2753 
L 3481 2753 
L 3481 2222 
L 1259 2222 
L 1259 531 
L 3634 531 
L 3634 0 
L 628 0 
L 628 4666 
z
" transform="scale(0.015625)"></path>
     </defs>
     <use xlink:href="#DejaVuSans-52"></use>
     <use xlink:href="#DejaVuSans-61" x="67.232422"></use>
     <use xlink:href="#DejaVuSans-64" x="128.511719"></use>
     <use xlink:href="#DejaVuSans-69" x="191.988281"></use>
     <use xlink:href="#DejaVuSans-61" x="219.771484"></use>
     <use xlink:href="#DejaVuSans-6c" x="281.050781"></use>
     <use xlink:href="#DejaVuSans-20" x="308.833984"></use>
     <use xlink:href="#DejaVuSans-54" x="340.621094"></use>
     <use xlink:href="#DejaVuSans-65" x="384.705078"></use>
     <use xlink:href="#DejaVuSans-6d" x="446.228516"></use>
     <use xlink:href="#DejaVuSans-70" x="543.640625"></use>
     <use xlink:href="#DejaVuSans-65" x="607.117188"></use>
     <use xlink:href="#DejaVuSans-72" x="668.640625"></use>
     <use xlink:href="#DejaVuSans-61" x="709.753906"></use>
     <use xlink:href="#DejaVuSans-74" x="771.033203"></use>
     <use xlink:href="#DejaVuSans-75" x="810.242188"></use>
     <use xlink:href="#DejaVuSans-72" x="873.621094"></use>
     <use xlink:href="#DejaVuSans-65" x="912.484375"></use>
     <use xlink:href="#DejaVuSans-20" x="974.007812"></use>
     <use xlink:href="#DejaVuSans-50" x="1005.794922"></use>
     <use xlink:href="#DejaVuSans-72" x="1064.347656"></use>
     <use xlink:href="#DejaVuSans-6f" x="1103.210938"></use>
     <use xlink:href="#DejaVuSans-66" x="1164.392578"></use>
     <use xlink:href="#DejaVuSans-69" x="1199.597656"></use>
     <use xlink:href="#DejaVuSans-6c" x="1227.380859"></use>
     <use xlink:href="#DejaVuSans-65" x="1255.164062"></use>
     <use xlink:href="#DejaVuSans-20" x="1316.6875"></use>
     <use xlink:href="#DejaVuSans-45" x="1348.474609"></use>
     <use xlink:href="#DejaVuSans-76" x="1411.658203"></use>
     <use xlink:href="#DejaVuSans-6f" x="1470.837891"></use>
     <use xlink:href="#DejaVuSans-6c" x="1532.019531"></use>
     <use xlink:href="#DejaVuSans-75" x="1559.802734"></use>
     <use xlink:href="#DejaVuSans-74" x="1623.181641"></use>
     <use xlink:href="#DejaVuSans-69" x="1662.390625"></use>
     <use xlink:href="#DejaVuSans-6f" x="1690.173828"></use>
     <use xlink:href="#DejaVuSans-6e" x="1751.355469"></use>
    </g>
   </g>
   <g id="legend_1">
    <g id="patch_7">
     <path d="M 64.6 302.584 
L 197.09375 302.584 
Q 199.09375 302.584 199.09375 300.584 
L 199.09375 257.549625 
Q 199.09375 255.549625 197.09375 255.549625 
L 64.6 255.549625 
Q 62.6 255.549625 62.6 257.549625 
L 62.6 300.584 
Q 62.6 302.584 64.6 302.584 
z
" style="fill: #ffffff; opacity: 0.8; stroke: #cccccc; stroke-linejoin: miter"></path>
    </g>
    <g id="line2d_34">
     <path d="M 66.6 263.648062 
L 76.6 263.648062 
L 86.6 263.648062 
" style="fill: none; stroke: #b40426; stroke-width: 1.5; stroke-linecap: square"></path>
    </g>
    <g id="text_15">
     <!-- incoming profile -->
     <g transform="translate(94.6 267.148062) scale(0.1 -0.1)">
      <defs>
       <path id="DejaVuSans-67" d="M 2906 1791 
Q 2906 2416 2648 2759 
Q 2391 3103 1925 3103 
Q 1463 3103 1205 2759 
Q 947 2416 947 1791 
Q 947 1169 1205 825 
Q 1463 481 1925 481 
Q 2391 481 2648 825 
Q 2906 1169 2906 1791 
z
M 3481 434 
Q 3481 -459 3084 -895 
Q 2688 -1331 1869 -1331 
Q 1566 -1331 1297 -1286 
Q 1028 -1241 775 -1147 
L 775 -588 
Q 1028 -725 1275 -790 
Q 1522 -856 1778 -856 
Q 2344 -856 2625 -561 
Q 2906 -266 2906 331 
L 2906 616 
Q 2728 306 2450 153 
Q 2172 0 1784 0 
Q 1141 0 747 490 
Q 353 981 353 1791 
Q 353 2603 747 3093 
Q 1141 3584 1784 3584 
Q 2172 3584 2450 3431 
Q 2728 3278 2906 2969 
L 2906 3500 
L 3481 3500 
L 3481 434 
z
" transform="scale(0.015625)"></path>
      </defs>
      <use xlink:href="#DejaVuSans-69"></use>
      <use xlink:href="#DejaVuSans-6e" x="27.783203"></use>
      <use xlink:href="#DejaVuSans-63" x="91.162109"></use>
      <use xlink:href="#DejaVuSans-6f" x="146.142578"></use>
      <use xlink:href="#DejaVuSans-6d" x="207.324219"></use>
      <use xlink:href="#DejaVuSans-69" x="304.736328"></use>
      <use xlink:href="#DejaVuSans-6e" x="332.519531"></use>
      <use xlink:href="#DejaVuSans-67" x="395.898438"></use>
      <use xlink:href="#DejaVuSans-20" x="459.375"></use>
      <use xlink:href="#DejaVuSans-70" x="491.162109"></use>
      <use xlink:href="#DejaVuSans-72" x="554.638672"></use>
      <use xlink:href="#DejaVuSans-6f" x="593.501953"></use>
      <use xlink:href="#DejaVuSans-66" x="654.683594"></use>
      <use xlink:href="#DejaVuSans-69" x="689.888672"></use>
      <use xlink:href="#DejaVuSans-6c" x="717.671875"></use>
      <use xlink:href="#DejaVuSans-65" x="745.455078"></use>
     </g>
    </g>
    <g id="line2d_35">
     <path d="M 66.6 275.992854 
L 86.6 275.992854 
" style="fill: none; stroke: #e7745b; stroke-width: 1.5"></path>
    </g>
    <g id="line2d_36">
     <path d="M 66.6 277.159521 
L 86.6 277.159521 
" style="fill: none; stroke: #f7b89c; stroke-width: 1.5"></path>
    </g>
    <g id="line2d_37">
     <path d="M 66.6 278.326188 
L 86.6 278.326188 
" style="fill: none; stroke: #dcdddd; stroke-width: 1.5"></path>
    </g>
    <g id="line2d_38">
     <path d="M 66.6 279.492854 
L 86.6 279.492854 
" style="fill: none; stroke: #aac7fd; stroke-width: 1.5"></path>
    </g>
    <g id="line2d_39">
     <path d="M 66.6 280.659521 
L 86.6 280.659521 
" style="fill: none; stroke: #6f92f3; stroke-width: 1.5"></path>
    </g>
    <g id="text_16">
     <!-- intermediate stages -->
     <g transform="translate(94.6 281.826188) scale(0.1 -0.1)">
      <use xlink:href="#DejaVuSans-69"></use>
      <use xlink:href="#DejaVuSans-6e" x="27.783203"></use>
      <use xlink:href="#DejaVuSans-74" x="91.162109"></use>
      <use xlink:href="#DejaVuSans-65" x="130.371094"></use>
      <use xlink:href="#DejaVuSans-72" x="191.894531"></use>
      <use xlink:href="#DejaVuSans-6d" x="231.257812"></use>
      <use xlink:href="#DejaVuSans-65" x="328.669922"></use>
      <use xlink:href="#DejaVuSans-64" x="390.193359"></use>
      <use xlink:href="#DejaVuSans-69" x="453.669922"></use>
      <use xlink:href="#DejaVuSans-61" x="481.453125"></use>
      <use xlink:href="#DejaVuSans-74" x="542.732422"></use>
      <use xlink:href="#DejaVuSans-65" x="581.941406"></use>
      <use xlink:href="#DejaVuSans-20" x="643.464844"></use>
      <use xlink:href="#DejaVuSans-73" x="675.251953"></use>
      <use xlink:href="#DejaVuSans-74" x="727.351562"></use>
      <use xlink:href="#DejaVuSans-61" x="766.560547"></use>
      <use xlink:href="#DejaVuSans-67" x="827.839844"></use>
      <use xlink:href="#DejaVuSans-65" x="891.316406"></use>
      <use xlink:href="#DejaVuSans-73" x="952.839844"></use>
     </g>
    </g>
    <g id="line2d_40">
     <path d="M 66.6 293.004312 
L 76.6 293.004312 
L 86.6 293.004312 
" style="fill: none; stroke: #3b4cc0; stroke-width: 1.5; stroke-linecap: square"></path>
    </g>
    <g id="text_17">
     <!-- outgoing profile -->
     <g transform="translate(94.6 296.504312) scale(0.1 -0.1)">
      <use xlink:href="#DejaVuSans-6f"></use>
      <use xlink:href="#DejaVuSans-75" x="61.181641"></use>
      <use xlink:href="#DejaVuSans-74" x="124.560547"></use>
      <use xlink:href="#DejaVuSans-67" x="163.769531"></use>
      <use xlink:href="#DejaVuSans-6f" x="227.246094"></use>
      <use xlink:href="#DejaVuSans-69" x="288.427734"></use>
      <use xlink:href="#DejaVuSans-6e" x="316.210938"></use>
      <use xlink:href="#DejaVuSans-67" x="379.589844"></use>
      <use xlink:href="#DejaVuSans-20" x="443.066406"></use>
      <use xlink:href="#DejaVuSans-70" x="474.853516"></use>
      <use xlink:href="#DejaVuSans-72" x="538.330078"></use>
      <use xlink:href="#DejaVuSans-6f" x="577.193359"></use>
      <use xlink:href="#DejaVuSans-66" x="638.375"></use>
      <use xlink:href="#DejaVuSans-69" x="673.580078"></use>
      <use xlink:href="#DejaVuSans-6c" x="701.363281"></use>
      <use xlink:href="#DejaVuSans-65" x="729.146484"></use>
     </g>
    </g>
   </g>
  </g>
 </g>
 <defs>
  <clipPath id="p5e2e39362e">
   <rect x="57.6" y="41.472" width="357.12" height="266.112"></rect>
  </clipPath>
 </defs>
</svg>
