<svg xmlns:xlink="http://www.w3.org/1999/xlink" width="460.8pt" height="345.6pt" viewBox="0 0 460.8 345.6" xmlns="http://www.w3.org/2000/svg" version="1.1">
 <metadata>
  <rdf:rdf xmlns:dc="http://purl.org/dc/elements/1.1/" xmlns:cc="http://creativecommons.org/ns#" xmlns:rdf="http://www.w3.org/1999/02/22-rdf-syntax-ns#">
   <cc:work>
    <dc:type rdf:resource="http://purl.org/dc/dcmitype/StillImage"></dc:type>
    <dc:date>2023-01-17T17:25:18.211832</dc:date>
    <dc:format>image/svg+xml</dc:format>
    <dc:creator>
     <cc:agent>
      <dc:title>Matplotlib v3.6.3, https://matplotlib.org/</dc:title>
     </cc:agent>
    </dc:creator>
   </cc:work>
  </rdf:rdf>
 </metadata>
 <defs>
  <style type="text/css">*{stroke-linejoin: round; stroke-linecap: butt}</style>
 </defs>
 <g id="figure_1">
  <g id="patch_1">
   <path d="M 0 345.6 
L 460.8 345.6 
L 460.8 0 
L 0 0 
z
" style="fill: #ffffff"></path>
  </g>
  <g id="axes_1">
   <g id="patch_2">
    <path d="M 57.6 307.584 
L 414.72 307.584 
L 414.72 41.472 
L 57.6 41.472 
z
" style="fill: #ffffff"></path>
   </g>
   <g id="matplotlib.axis_1">
    <g id="xtick_1">
     <g id="line2d_1">
      <defs>
       <path id="mce2e8987fd" d="M 0 0 
L 0 3.5 
" style="stroke: #000000; stroke-width: 0.8"></path>
      </defs>
      <g>
       <use xlink:href="#mce2e8987fd" x="73.832727" y="307.584" style="stroke: #000000; stroke-width: 0.8"></use>
      </g>
     </g>
     <g id="text_1">
      <!-- 0.00 -->
      <g transform="translate(62.699915 322.182437) scale(0.1 -0.1)">
       <defs>
        <path id="DejaVuSans-30" d="M 2034 4250 
Q 1547 4250 1301 3770 
Q 1056 3291 1056 2328 
Q 1056 1369 1301 889 
Q 1547 409 2034 409 
Q 2525 409 2770 889 
Q 3016 1369 3016 2328 
Q 3016 3291 2770 3770 
Q 2525 4250 2034 4250 
z
M 2034 4750 
Q 2819 4750 3233 4129 
Q 3647 3509 3647 2328 
Q 3647 1150 3233 529 
Q 2819 -91 2034 -91 
Q 1250 -91 836 529 
Q 422 1150 422 2328 
Q 422 3509 836 4129 
Q 1250 4750 2034 4750 
z
" transform="scale(0.015625)"></path>
        <path id="DejaVuSans-2e" d="M 684 794 
L 1344 794 
L 1344 0 
L 684 0 
L 684 794 
z
" transform="scale(0.015625)"></path>
       </defs>
       <use xlink:href="#DejaVuSans-30"></use>
       <use xlink:href="#DejaVuSans-2e" x="63.623047"></use>
       <use xlink:href="#DejaVuSans-30" x="95.410156"></use>
       <use xlink:href="#DejaVuSans-30" x="159.033203"></use>
      </g>
     </g>
    </g>
    <g id="xtick_2">
     <g id="line2d_2">
      <g>
       <use xlink:href="#mce2e8987fd" x="123.117947" y="307.584" style="stroke: #000000; stroke-width: 0.8"></use>
      </g>
     </g>
     <g id="text_2">
      <!-- 0.25 -->
      <g transform="translate(111.985134 322.182437) scale(0.1 -0.1)">
       <defs>
        <path id="DejaVuSans-32" d="M 1228 531 
L 3431 531 
L 3431 0 
L 469 0 
L 469 531 
Q 828 903 1448 1529 
Q 2069 2156 2228 2338 
Q 2531 2678 2651 2914 
Q 2772 3150 2772 3378 
Q 2772 3750 2511 3984 
Q 2250 4219 1831 4219 
Q 1534 4219 1204 4116 
Q 875 4013 500 3803 
L 500 4441 
Q 881 4594 1212 4672 
Q 1544 4750 1819 4750 
Q 2544 4750 2975 4387 
Q 3406 4025 3406 3419 
Q 3406 3131 3298 2873 
Q 3191 2616 2906 2266 
Q 2828 2175 2409 1742 
Q 1991 1309 1228 531 
z
" transform="scale(0.015625)"></path>
        <path id="DejaVuSans-35" d="M 691 4666 
L 3169 4666 
L 3169 4134 
L 1269 4134 
L 1269 2991 
Q 1406 3038 1543 3061 
Q 1681 3084 1819 3084 
Q 2600 3084 3056 2656 
Q 3513 2228 3513 1497 
Q 3513 744 3044 326 
Q 2575 -91 1722 -91 
Q 1428 -91 1123 -41 
Q 819 9 494 109 
L 494 744 
Q 775 591 1075 516 
Q 1375 441 1709 441 
Q 2250 441 2565 725 
Q 2881 1009 2881 1497 
Q 2881 1984 2565 2268 
Q 2250 2553 1709 2553 
Q 1456 2553 1204 2497 
Q 953 2441 691 2322 
L 691 4666 
z
" transform="scale(0.015625)"></path>
       </defs>
       <use xlink:href="#DejaVuSans-30"></use>
       <use xlink:href="#DejaVuSans-2e" x="63.623047"></use>
       <use xlink:href="#DejaVuSans-32" x="95.410156"></use>
       <use xlink:href="#DejaVuSans-35" x="159.033203"></use>
      </g>
     </g>
    </g>
    <g id="xtick_3">
     <g id="line2d_3">
      <g>
       <use xlink:href="#mce2e8987fd" x="172.403166" y="307.584" style="stroke: #000000; stroke-width: 0.8"></use>
      </g>
     </g>
     <g id="text_3">
      <!-- 0.50 -->
      <g transform="translate(161.270354 322.182437) scale(0.1 -0.1)">
       <use xlink:href="#DejaVuSans-30"></use>
       <use xlink:href="#DejaVuSans-2e" x="63.623047"></use>
       <use xlink:href="#DejaVuSans-35" x="95.410156"></use>
       <use xlink:href="#DejaVuSans-30" x="159.033203"></use>
      </g>
     </g>
    </g>
    <g id="xtick_4">
     <g id="line2d_4">
      <g>
       <use xlink:href="#mce2e8987fd" x="221.688386" y="307.584" style="stroke: #000000; stroke-width: 0.8"></use>
      </g>
     </g>
     <g id="text_4">
      <!-- 0.75 -->
      <g transform="translate(210.555573 322.182437) scale(0.1 -0.1)">
       <defs>
        <path id="DejaVuSans-37" d="M 525 4666 
L 3525 4666 
L 3525 4397 
L 1831 0 
L 1172 0 
L 2766 4134 
L 525 4134 
L 525 4666 
z
" transform="scale(0.015625)"></path>
       </defs>
       <use xlink:href="#DejaVuSans-30"></use>
       <use xlink:href="#DejaVuSans-2e" x="63.623047"></use>
       <use xlink:href="#DejaVuSans-37" x="95.410156"></use>
       <use xlink:href="#DejaVuSans-35" x="159.033203"></use>
      </g>
     </g>
    </g>
    <g id="xtick_5">
     <g id="line2d_5">
      <g>
       <use xlink:href="#mce2e8987fd" x="270.973605" y="307.584" style="stroke: #000000; stroke-width: 0.8"></use>
      </g>
     </g>
     <g id="text_5">
      <!-- 1.00 -->
      <g transform="translate(259.840793 322.182437) scale(0.1 -0.1)">
       <defs>
        <path id="DejaVuSans-31" d="M 794 531 
L 1825 531 
L 1825 4091 
L 703 3866 
L 703 4441 
L 1819 4666 
L 2450 4666 
L 2450 531 
L 3481 531 
L 3481 0 
L 794 0 
L 794 531 
z
" transform="scale(0.015625)"></path>
       </defs>
       <use xlink:href="#DejaVuSans-31"></use>
       <use xlink:href="#DejaVuSans-2e" x="63.623047"></use>
       <use xlink:href="#DejaVuSans-30" x="95.410156"></use>
       <use xlink:href="#DejaVuSans-30" x="159.033203"></use>
      </g>
     </g>
    </g>
    <g id="xtick_6">
     <g id="line2d_6">
      <g>
       <use xlink:href="#mce2e8987fd" x="320.258824" y="307.584" style="stroke: #000000; stroke-width: 0.8"></use>
      </g>
     </g>
     <g id="text_6">
      <!-- 1.25 -->
      <g transform="translate(309.126012 322.182437) scale(0.1 -0.1)">
       <use xlink:href="#DejaVuSans-31"></use>
       <use xlink:href="#DejaVuSans-2e" x="63.623047"></use>
       <use xlink:href="#DejaVuSans-32" x="95.410156"></use>
       <use xlink:href="#DejaVuSans-35" x="159.033203"></use>
      </g>
     </g>
    </g>
    <g id="xtick_7">
     <g id="line2d_7">
      <g>
       <use xlink:href="#mce2e8987fd" x="369.544044" y="307.584" style="stroke: #000000; stroke-width: 0.8"></use>
      </g>
     </g>
     <g id="text_7">
      <!-- 1.50 -->
      <g transform="translate(358.411231 322.182437) scale(0.1 -0.1)">
       <use xlink:href="#DejaVuSans-31"></use>
       <use xlink:href="#DejaVuSans-2e" x="63.623047"></use>
       <use xlink:href="#DejaVuSans-35" x="95.410156"></use>
       <use xlink:href="#DejaVuSans-30" x="159.033203"></use>
      </g>
     </g>
    </g>
    <g id="text_8">
     <!-- Cumulative Process Time $t$ -->
     <g transform="translate(169.31 335.860562) scale(0.1 -0.1)">
      <defs>
       <path id="DejaVuSans-43" d="M 4122 4306 
L 4122 3641 
Q 3803 3938 3442 4084 
Q 3081 4231 2675 4231 
Q 1875 4231 1450 3742 
Q 1025 3253 1025 2328 
Q 1025 1406 1450 917 
Q 1875 428 2675 428 
Q 3081 428 3442 575 
Q 3803 722 4122 1019 
L 4122 359 
Q 3791 134 3420 21 
Q 3050 -91 2638 -91 
Q 1578 -91 968 557 
Q 359 1206 359 2328 
Q 359 3453 968 4101 
Q 1578 4750 2638 4750 
Q 3056 4750 3426 4639 
Q 3797 4528 4122 4306 
z
" transform="scale(0.015625)"></path>
       <path id="DejaVuSans-75" d="M 544 1381 
L 544 3500 
L 1119 3500 
L 1119 1403 
Q 1119 906 1312 657 
Q 1506 409 1894 409 
Q 2359 409 2629 706 
Q 2900 1003 2900 1516 
L 2900 3500 
L 3475 3500 
L 3475 0 
L 2900 0 
L 2900 538 
Q 2691 219 2414 64 
Q 2138 -91 1772 -91 
Q 1169 -91 856 284 
Q 544 659 544 1381 
z
M 1991 3584 
L 1991 3584 
z
" transform="scale(0.015625)"></path>
       <path id="DejaVuSans-6d" d="M 3328 2828 
Q 3544 3216 3844 3400 
Q 4144 3584 4550 3584 
Q 5097 3584 5394 3201 
Q 5691 2819 5691 2113 
L 5691 0 
L 5113 0 
L 5113 2094 
Q 5113 2597 4934 2840 
Q 4756 3084 4391 3084 
Q 3944 3084 3684 2787 
Q 3425 2491 3425 1978 
L 3425 0 
L 2847 0 
L 2847 2094 
Q 2847 2600 2669 2842 
Q 2491 3084 2119 3084 
Q 1678 3084 1418 2786 
Q 1159 2488 1159 1978 
L 1159 0 
L 581 0 
L 581 3500 
L 1159 3500 
L 1159 2956 
Q 1356 3278 1631 3431 
Q 1906 3584 2284 3584 
Q 2666 3584 2933 3390 
Q 3200 3197 3328 2828 
z
" transform="scale(0.015625)"></path>
       <path id="DejaVuSans-6c" d="M 603 4863 
L 1178 4863 
L 1178 0 
L 603 0 
L 603 4863 
z
" transform="scale(0.015625)"></path>
       <path id="DejaVuSans-61" d="M 2194 1759 
Q 1497 1759 1228 1600 
Q 959 1441 959 1056 
Q 959 750 1161 570 
Q 1363 391 1709 391 
Q 2188 391 2477 730 
Q 2766 1069 2766 1631 
L 2766 1759 
L 2194 1759 
z
M 3341 1997 
L 3341 0 
L 2766 0 
L 2766 531 
Q 2569 213 2275 61 
Q 1981 -91 1556 -91 
Q 1019 -91 701 211 
Q 384 513 384 1019 
Q 384 1609 779 1909 
Q 1175 2209 1959 2209 
L 2766 2209 
L 2766 2266 
Q 2766 2663 2505 2880 
Q 2244 3097 1772 3097 
Q 1472 3097 1187 3025 
Q 903 2953 641 2809 
L 641 3341 
Q 956 3463 1253 3523 
Q 1550 3584 1831 3584 
Q 2591 3584 2966 3190 
Q 3341 2797 3341 1997 
z
" transform="scale(0.015625)"></path>
       <path id="DejaVuSans-74" d="M 1172 4494 
L 1172 3500 
L 2356 3500 
L 2356 3053 
L 1172 3053 
L 1172 1153 
Q 1172 725 1289 603 
Q 1406 481 1766 481 
L 2356 481 
L 2356 0 
L 1766 0 
Q 1100 0 847 248 
Q 594 497 594 1153 
L 594 3053 
L 172 3053 
L 172 3500 
L 594 3500 
L 594 4494 
L 1172 4494 
z
" transform="scale(0.015625)"></path>
       <path id="DejaVuSans-69" d="M 603 3500 
L 1178 3500 
L 1178 0 
L 603 0 
L 603 3500 
z
M 603 4863 
L 1178 4863 
L 1178 4134 
L 603 4134 
L 603 4863 
z
" transform="scale(0.015625)"></path>
       <path id="DejaVuSans-76" d="M 191 3500 
L 800 3500 
L 1894 563 
L 2988 3500 
L 3597 3500 
L 2284 0 
L 1503 0 
L 191 3500 
z
" transform="scale(0.015625)"></path>
       <path id="DejaVuSans-65" d="M 3597 1894 
L 3597 1613 
L 953 1613 
Q 991 1019 1311 708 
Q 1631 397 2203 397 
Q 2534 397 2845 478 
Q 3156 559 3463 722 
L 3463 178 
Q 3153 47 2828 -22 
Q 2503 -91 2169 -91 
Q 1331 -91 842 396 
Q 353 884 353 1716 
Q 353 2575 817 3079 
Q 1281 3584 2069 3584 
Q 2775 3584 3186 3129 
Q 3597 2675 3597 1894 
z
M 3022 2063 
Q 3016 2534 2758 2815 
Q 2500 3097 2075 3097 
Q 1594 3097 1305 2825 
Q 1016 2553 972 2059 
L 3022 2063 
z
" transform="scale(0.015625)"></path>
       <path id="DejaVuSans-20" transform="scale(0.015625)"></path>
       <path id="DejaVuSans-50" d="M 1259 4147 
L 1259 2394 
L 2053 2394 
Q 2494 2394 2734 2622 
Q 2975 2850 2975 3272 
Q 2975 3691 2734 3919 
Q 2494 4147 2053 4147 
L 1259 4147 
z
M 628 4666 
L 2053 4666 
Q 2838 4666 3239 4311 
Q 3641 3956 3641 3272 
Q 3641 2581 3239 2228 
Q 2838 1875 2053 1875 
L 1259 1875 
L 1259 0 
L 628 0 
L 628 4666 
z
" transform="scale(0.015625)"></path>
       <path id="DejaVuSans-72" d="M 2631 2963 
Q 2534 3019 2420 3045 
Q 2306 3072 2169 3072 
Q 1681 3072 1420 2755 
Q 1159 2438 1159 1844 
L 1159 0 
L 581 0 
L 581 3500 
L 1159 3500 
L 1159 2956 
Q 1341 3275 1631 3429 
Q 1922 3584 2338 3584 
Q 2397 3584 2469 3576 
Q 2541 3569 2628 3553 
L 2631 2963 
z
" transform="scale(0.015625)"></path>
       <path id="DejaVuSans-6f" d="M 1959 3097 
Q 1497 3097 1228 2736 
Q 959 2375 959 1747 
Q 959 1119 1226 758 
Q 1494 397 1959 397 
Q 2419 397 2687 759 
Q 2956 1122 2956 1747 
Q 2956 2369 2687 2733 
Q 2419 3097 1959 3097 
z
M 1959 3584 
Q 2709 3584 3137 3096 
Q 3566 2609 3566 1747 
Q 3566 888 3137 398 
Q 2709 -91 1959 -91 
Q 1206 -91 779 398 
Q 353 888 353 1747 
Q 353 2609 779 3096 
Q 1206 3584 1959 3584 
z
" transform="scale(0.015625)"></path>
       <path id="DejaVuSans-63" d="M 3122 3366 
L 3122 2828 
Q 2878 2963 2633 3030 
Q 2388 3097 2138 3097 
Q 1578 3097 1268 2742 
Q 959 2388 959 1747 
Q 959 1106 1268 751 
Q 1578 397 2138 397 
Q 2388 397 2633 464 
Q 2878 531 3122 666 
L 3122 134 
Q 2881 22 2623 -34 
Q 2366 -91 2075 -91 
Q 1284 -91 818 406 
Q 353 903 353 1747 
Q 353 2603 823 3093 
Q 1294 3584 2113 3584 
Q 2378 3584 2631 3529 
Q 2884 3475 3122 3366 
z
" transform="scale(0.015625)"></path>
       <path id="DejaVuSans-73" d="M 2834 3397 
L 2834 2853 
Q 2591 2978 2328 3040 
Q 2066 3103 1784 3103 
Q 1356 3103 1142 2972 
Q 928 2841 928 2578 
Q 928 2378 1081 2264 
Q 1234 2150 1697 2047 
L 1894 2003 
Q 2506 1872 2764 1633 
Q 3022 1394 3022 966 
Q 3022 478 2636 193 
Q 2250 -91 1575 -91 
Q 1294 -91 989 -36 
Q 684 19 347 128 
L 347 722 
Q 666 556 975 473 
Q 1284 391 1588 391 
Q 1994 391 2212 530 
Q 2431 669 2431 922 
Q 2431 1156 2273 1281 
Q 2116 1406 1581 1522 
L 1381 1569 
Q 847 1681 609 1914 
Q 372 2147 372 2553 
Q 372 3047 722 3315 
Q 1072 3584 1716 3584 
Q 2034 3584 2315 3537 
Q 2597 3491 2834 3397 
z
" transform="scale(0.015625)"></path>
       <path id="DejaVuSans-54" d="M -19 4666 
L 3928 4666 
L 3928 4134 
L 2272 4134 
L 2272 0 
L 1638 0 
L 1638 4134 
L -19 4134 
L -19 4666 
z
" transform="scale(0.015625)"></path>
       <path id="DejaVuSans-Oblique-74" d="M 2706 3500 
L 2619 3053 
L 1472 3053 
L 1100 1153 
Q 1081 1047 1072 975 
Q 1063 903 1063 863 
Q 1063 663 1183 572 
Q 1303 481 1569 481 
L 2150 481 
L 2053 0 
L 1503 0 
Q 991 0 739 200 
Q 488 400 488 806 
Q 488 878 497 964 
Q 506 1050 525 1153 
L 897 3053 
L 409 3053 
L 500 3500 
L 978 3500 
L 1172 4494 
L 1747 4494 
L 1556 3500 
L 2706 3500 
z
" transform="scale(0.015625)"></path>
      </defs>
      <use xlink:href="#DejaVuSans-43" transform="translate(0 0.015625)"></use>
      <use xlink:href="#DejaVuSans-75" transform="translate(69.824219 0.015625)"></use>
      <use xlink:href="#DejaVuSans-6d" transform="translate(133.203125 0.015625)"></use>
      <use xlink:href="#DejaVuSans-75" transform="translate(230.615234 0.015625)"></use>
      <use xlink:href="#DejaVuSans-6c" transform="translate(293.994141 0.015625)"></use>
      <use xlink:href="#DejaVuSans-61" transform="translate(321.777344 0.015625)"></use>
      <use xlink:href="#DejaVuSans-74" transform="translate(383.056641 0.015625)"></use>
      <use xlink:href="#DejaVuSans-69" transform="translate(422.265625 0.015625)"></use>
      <use xlink:href="#DejaVuSans-76" transform="translate(450.048828 0.015625)"></use>
      <use xlink:href="#DejaVuSans-65" transform="translate(509.228516 0.015625)"></use>
      <use xlink:href="#DejaVuSans-20" transform="translate(570.751953 0.015625)"></use>
      <use xlink:href="#DejaVuSans-50" transform="translate(602.539062 0.015625)"></use>
      <use xlink:href="#DejaVuSans-72" transform="translate(662.841797 0.015625)"></use>
      <use xlink:href="#DejaVuSans-6f" transform="translate(703.955078 0.015625)"></use>
      <use xlink:href="#DejaVuSans-63" transform="translate(765.136719 0.015625)"></use>
      <use xlink:href="#DejaVuSans-65" transform="translate(820.117188 0.015625)"></use>
      <use xlink:href="#DejaVuSans-73" transform="translate(881.640625 0.015625)"></use>
      <use xlink:href="#DejaVuSans-73" transform="translate(933.740234 0.015625)"></use>
      <use xlink:href="#DejaVuSans-20" transform="translate(985.839844 0.015625)"></use>
      <use xlink:href="#DejaVuSans-54" transform="translate(1017.626953 0.015625)"></use>
      <use xlink:href="#DejaVuSans-69" transform="translate(1078.710938 0.015625)"></use>
      <use xlink:href="#DejaVuSans-6d" transform="translate(1106.494141 0.015625)"></use>
      <use xlink:href="#DejaVuSans-65" transform="translate(1203.90625 0.015625)"></use>
      <use xlink:href="#DejaVuSans-20" transform="translate(1265.429688 0.015625)"></use>
      <use xlink:href="#DejaVuSans-Oblique-74" transform="translate(1297.216797 0.015625)"></use>
     </g>
    </g>
   </g>
   <g id="matplotlib.axis_2">
    <g id="ytick_1">
     <g id="line2d_8">
      <defs>
       <path id="m9dbefa9ca7" d="M 0 0 
L -3.5 0 
" style="stroke: #000000; stroke-width: 0.8"></path>
      </defs>
      <g>
       <use xlink:href="#m9dbefa9ca7" x="57.6" y="286.982987" style="stroke: #000000; stroke-width: 0.8"></use>
      </g>
     </g>
     <g id="text_9">
      <!-- 1100 -->
      <g transform="translate(25.15 290.782206) scale(0.1 -0.1)">
       <use xlink:href="#DejaVuSans-31"></use>
       <use xlink:href="#DejaVuSans-31" x="63.623047"></use>
       <use xlink:href="#DejaVuSans-30" x="127.246094"></use>
       <use xlink:href="#DejaVuSans-30" x="190.869141"></use>
      </g>
     </g>
    </g>
    <g id="ytick_2">
     <g id="line2d_9">
      <g>
       <use xlink:href="#m9dbefa9ca7" x="57.6" y="229.938673" style="stroke: #000000; stroke-width: 0.8"></use>
      </g>
     </g>
     <g id="text_10">
      <!-- 1200 -->
      <g transform="translate(25.15 233.737892) scale(0.1 -0.1)">
       <use xlink:href="#DejaVuSans-31"></use>
       <use xlink:href="#DejaVuSans-32" x="63.623047"></use>
       <use xlink:href="#DejaVuSans-30" x="127.246094"></use>
       <use xlink:href="#DejaVuSans-30" x="190.869141"></use>
      </g>
     </g>
    </g>
    <g id="ytick_3">
     <g id="line2d_10">
      <g>
       <use xlink:href="#m9dbefa9ca7" x="57.6" y="172.89436" style="stroke: #000000; stroke-width: 0.8"></use>
      </g>
     </g>
     <g id="text_11">
      <!-- 1300 -->
      <g transform="translate(25.15 176.693578) scale(0.1 -0.1)">
       <defs>
        <path id="DejaVuSans-33" d="M 2597 2516 
Q 3050 2419 3304 2112 
Q 3559 1806 3559 1356 
Q 3559 666 3084 287 
Q 2609 -91 1734 -91 
Q 1441 -91 1130 -33 
Q 819 25 488 141 
L 488 750 
Q 750 597 1062 519 
Q 1375 441 1716 441 
Q 2309 441 2620 675 
Q 2931 909 2931 1356 
Q 2931 1769 2642 2001 
Q 2353 2234 1838 2234 
L 1294 2234 
L 1294 2753 
L 1863 2753 
Q 2328 2753 2575 2939 
Q 2822 3125 2822 3475 
Q 2822 3834 2567 4026 
Q 2313 4219 1838 4219 
Q 1578 4219 1281 4162 
Q 984 4106 628 3988 
L 628 4550 
Q 988 4650 1302 4700 
Q 1616 4750 1894 4750 
Q 2613 4750 3031 4423 
Q 3450 4097 3450 3541 
Q 3450 3153 3228 2886 
Q 3006 2619 2597 2516 
z
" transform="scale(0.015625)"></path>
       </defs>
       <use xlink:href="#DejaVuSans-31"></use>
       <use xlink:href="#DejaVuSans-33" x="63.623047"></use>
       <use xlink:href="#DejaVuSans-30" x="127.246094"></use>
       <use xlink:href="#DejaVuSans-30" x="190.869141"></use>
      </g>
     </g>
    </g>
    <g id="ytick_4">
     <g id="line2d_11">
      <g>
       <use xlink:href="#m9dbefa9ca7" x="57.6" y="115.850046" style="stroke: #000000; stroke-width: 0.8"></use>
      </g>
     </g>
     <g id="text_12">
      <!-- 1400 -->
      <g transform="translate(25.15 119.649264) scale(0.1 -0.1)">
       <defs>
        <path id="DejaVuSans-34" d="M 2419 4116 
L 825 1625 
L 2419 1625 
L 2419 4116 
z
M 2253 4666 
L 3047 4666 
L 3047 1625 
L 3713 1625 
L 3713 1100 
L 3047 1100 
L 3047 0 
L 2419 0 
L 2419 1100 
L 313 1100 
L 313 1709 
L 2253 4666 
z
" transform="scale(0.015625)"></path>
       </defs>
       <use xlink:href="#DejaVuSans-31"></use>
       <use xlink:href="#DejaVuSans-34" x="63.623047"></use>
       <use xlink:href="#DejaVuSans-30" x="127.246094"></use>
       <use xlink:href="#DejaVuSans-30" x="190.869141"></use>
      </g>
     </g>
    </g>
    <g id="ytick_5">
     <g id="line2d_12">
      <g>
       <use xlink:href="#m9dbefa9ca7" x="57.6" y="58.805732" style="stroke: #000000; stroke-width: 0.8"></use>
      </g>
     </g>
     <g id="text_13">
      <!-- 1500 -->
      <g transform="translate(25.15 62.604951) scale(0.1 -0.1)">
       <use xlink:href="#DejaVuSans-31"></use>
       <use xlink:href="#DejaVuSans-35" x="63.623047"></use>
       <use xlink:href="#DejaVuSans-30" x="127.246094"></use>
       <use xlink:href="#DejaVuSans-30" x="190.869141"></use>
      </g>
     </g>
    </g>
    <g id="text_14">
     <!-- Temperature $T$ -->
     <g transform="translate(19.05 211.828) rotate(-90) scale(0.1 -0.1)">
      <defs>
       <path id="DejaVuSans-70" d="M 1159 525 
L 1159 -1331 
L 581 -1331 
L 581 3500 
L 1159 3500 
L 1159 2969 
Q 1341 3281 1617 3432 
Q 1894 3584 2278 3584 
Q 2916 3584 3314 3078 
Q 3713 2572 3713 1747 
Q 3713 922 3314 415 
Q 2916 -91 2278 -91 
Q 1894 -91 1617 61 
Q 1341 213 1159 525 
z
M 3116 1747 
Q 3116 2381 2855 2742 
Q 2594 3103 2138 3103 
Q 1681 3103 1420 2742 
Q 1159 2381 1159 1747 
Q 1159 1113 1420 752 
Q 1681 391 2138 391 
Q 2594 391 2855 752 
Q 3116 1113 3116 1747 
z
" transform="scale(0.015625)"></path>
       <path id="DejaVuSans-Oblique-54" d="M 378 4666 
L 4325 4666 
L 4225 4134 
L 2559 4134 
L 1759 0 
L 1125 0 
L 1925 4134 
L 275 4134 
L 378 4666 
z
" transform="scale(0.015625)"></path>
      </defs>
      <use xlink:href="#DejaVuSans-54" transform="translate(0 0.09375)"></use>
      <use xlink:href="#DejaVuSans-65" transform="translate(61.083984 0.09375)"></use>
      <use xlink:href="#DejaVuSans-6d" transform="translate(122.607422 0.09375)"></use>
      <use xlink:href="#DejaVuSans-70" transform="translate(220.019531 0.09375)"></use>
      <use xlink:href="#DejaVuSans-65" transform="translate(283.496094 0.09375)"></use>
      <use xlink:href="#DejaVuSans-72" transform="translate(345.019531 0.09375)"></use>
      <use xlink:href="#DejaVuSans-61" transform="translate(386.132812 0.09375)"></use>
      <use xlink:href="#DejaVuSans-74" transform="translate(447.412109 0.09375)"></use>
      <use xlink:href="#DejaVuSans-75" transform="translate(486.621094 0.09375)"></use>
      <use xlink:href="#DejaVuSans-72" transform="translate(550 0.09375)"></use>
      <use xlink:href="#DejaVuSans-65" transform="translate(591.113281 0.09375)"></use>
      <use xlink:href="#DejaVuSans-20" transform="translate(652.636719 0.09375)"></use>
      <use xlink:href="#DejaVuSans-Oblique-54" transform="translate(684.423828 0.09375)"></use>
     </g>
    </g>
   </g>
   <g id="line2d_13">
    <path d="M 73.832727 74.12213 
L 73.832727 74.12213 
L 73.832727 74.12213 
L 127.451936 63.650227 
L 127.451936 63.650227 
L 324.592814 63.715332 
L 324.592814 63.715332 
L 387.403104 55.065731 
L 387.403104 55.065731 
L 398.487273 53.568 
L 398.487273 53.568 
" clip-path="url(#p4ae8a07dc1)" style="fill: none; stroke: #1f77b4; stroke-width: 1.5; stroke-linecap: square"></path>
   </g>
   <g id="line2d_14">
    <path d="M 73.832727 74.12213 
L 73.832727 176.053897 
L 73.832727 176.053897 
L 79.194648 186.19409 
L 79.194648 186.19409 
L 84.556569 195.523558 
L 84.556569 195.523558 
L 89.91849 204.140945 
L 89.91849 204.140945 
L 95.280411 212.130318 
L 95.280411 212.130318 
L 100.642332 219.563571 
L 100.642332 219.563571 
L 106.004253 226.502387 
L 106.004253 226.502387 
L 111.366173 232.999877 
L 111.366173 232.999877 
L 116.728094 239.101921 
L 116.728094 239.101921 
L 122.090015 244.848298 
L 122.090015 244.848298 
L 127.451936 250.27361 
L 127.451936 163.983953 
L 127.451936 163.983953 
L 137.30898 155.632819 
L 137.30898 155.632819 
L 147.166024 149.276079 
L 147.166024 149.276079 
L 157.023068 144.311598 
L 157.023068 144.311598 
L 166.880112 140.345515 
L 166.880112 140.345515 
L 176.737155 137.113956 
L 176.737155 137.113956 
L 186.594199 134.435855 
L 186.594199 134.435855 
L 196.451243 132.184022 
L 196.451243 132.184022 
L 206.308287 130.267078 
L 206.308287 130.267078 
L 216.165331 128.61796 
L 216.165331 128.61796 
L 226.022375 127.186456 
L 226.022375 127.186456 
L 235.879419 125.934275 
L 235.879419 125.934275 
L 245.736463 124.831724 
L 245.736463 124.831724 
L 265.45055 122.986678 
L 265.45055 122.986678 
L 285.164638 121.514261 
L 285.164638 121.514261 
L 304.878726 120.323189 
L 304.878726 120.323189 
L 324.592814 119.350158 
L 324.592814 119.350158 
L 324.592814 206.766917 
L 324.592814 206.766917 
L 328.287537 213.819687 
L 328.287537 213.819687 
L 331.98226 220.42153 
L 331.98226 220.42153 
L 335.676983 226.617949 
L 339.371706 232.448852 
L 339.371706 232.448852 
L 343.066429 237.949317 
L 346.761151 243.150245 
L 346.761151 243.150245 
L 350.455874 248.078919 
L 350.455874 248.078919 
L 354.150597 252.759482 
L 354.150597 252.759482 
L 357.84532 257.21335 
L 357.84532 257.21335 
L 361.540043 261.459559 
L 361.540043 261.459559 
L 365.234766 265.515075 
L 365.234766 265.515075 
L 368.929489 269.395046 
L 368.929489 269.395046 
L 376.318935 276.681212 
L 376.318935 276.681212 
L 383.708381 283.410815 
L 383.708381 283.410815 
L 391.097827 289.659174 
L 391.097827 289.659174 
L 398.487273 295.488 
L 398.487273 288.202753 
L 398.487273 288.202753 
" clip-path="url(#p4ae8a07dc1)" style="fill: none; stroke: #ff7f0e; stroke-width: 1.5; stroke-linecap: square"></path>
   </g>
   <g id="line2d_15">
    <path d="M 73.832727 74.12213 
L 73.832727 74.12213 
L 73.832727 74.12213 
L 95.280411 74.662637 
L 95.280411 74.662637 
L 122.090015 75.110346 
L 122.090015 75.110346 
L 137.30898 75.362209 
L 137.30898 75.362209 
L 226.022375 76.878278 
L 226.022375 76.878278 
L 324.592814 78.510377 
L 324.592814 78.510377 
L 346.761151 80.515097 
L 346.761151 80.515097 
L 376.318935 82.930611 
L 376.318935 82.930611 
L 398.487273 84.612245 
L 398.487273 84.612245 
" clip-path="url(#p4ae8a07dc1)" style="fill: none; stroke: #2ca02c; stroke-width: 1.5; stroke-linecap: square"></path>
   </g>
   <g id="patch_3">
    <path d="M 57.6 307.584 
L 57.6 41.472 
" style="fill: none; stroke: #000000; stroke-width: 0.8; stroke-linejoin: miter; stroke-linecap: square"></path>
   </g>
   <g id="patch_4">
    <path d="M 414.72 307.584 
L 414.72 41.472 
" style="fill: none; stroke: #000000; stroke-width: 0.8; stroke-linejoin: miter; stroke-linecap: square"></path>
   </g>
   <g id="patch_5">
    <path d="M 57.6 307.584 
L 414.72 307.584 
" style="fill: none; stroke: #000000; stroke-width: 0.8; stroke-linejoin: miter; stroke-linecap: square"></path>
   </g>
   <g id="patch_6">
    <path d="M 57.6 41.472 
L 414.72 41.472 
" style="fill: none; stroke: #000000; stroke-width: 0.8; stroke-linejoin: miter; stroke-linecap: square"></path>
   </g>
   <g id="text_15">
    <!-- Temperature Evolution -->
    <g transform="translate(168.27375 35.472) scale(0.12 -0.12)">
     <defs>
      <path id="DejaVuSans-45" d="M 628 4666 
L 3578 4666 
L 3578 4134 
L 1259 4134 
L 1259 2753 
L 3481 2753 
L 3481 2222 
L 1259 2222 
L 1259 531 
L 3634 531 
L 3634 0 
L 628 0 
L 628 4666 
z
" transform="scale(0.015625)"></path>
      <path id="DejaVuSans-6e" d="M 3513 2113 
L 3513 0 
L 2938 0 
L 2938 2094 
Q 2938 2591 2744 2837 
Q 2550 3084 2163 3084 
Q 1697 3084 1428 2787 
Q 1159 2491 1159 1978 
L 1159 0 
L 581 0 
L 581 3500 
L 1159 3500 
L 1159 2956 
Q 1366 3272 1645 3428 
Q 1925 3584 2291 3584 
Q 2894 3584 3203 3211 
Q 3513 2838 3513 2113 
z
" transform="scale(0.015625)"></path>
     </defs>
     <use xlink:href="#DejaVuSans-54"></use>
     <use xlink:href="#DejaVuSans-65" x="44.083984"></use>
     <use xlink:href="#DejaVuSans-6d" x="105.607422"></use>
     <use xlink:href="#DejaVuSans-70" x="203.019531"></use>
     <use xlink:href="#DejaVuSans-65" x="266.496094"></use>
     <use xlink:href="#DejaVuSans-72" x="328.019531"></use>
     <use xlink:href="#DejaVuSans-61" x="369.132812"></use>
     <use xlink:href="#DejaVuSans-74" x="430.412109"></use>
     <use xlink:href="#DejaVuSans-75" x="469.621094"></use>
     <use xlink:href="#DejaVuSans-72" x="533"></use>
     <use xlink:href="#DejaVuSans-65" x="571.863281"></use>
     <use xlink:href="#DejaVuSans-20" x="633.386719"></use>
     <use xlink:href="#DejaVuSans-45" x="665.173828"></use>
     <use xlink:href="#DejaVuSans-76" x="728.357422"></use>
     <use xlink:href="#DejaVuSans-6f" x="787.537109"></use>
     <use xlink:href="#DejaVuSans-6c" x="848.71875"></use>
     <use xlink:href="#DejaVuSans-75" x="876.501953"></use>
     <use xlink:href="#DejaVuSans-74" x="939.880859"></use>
     <use xlink:href="#DejaVuSans-69" x="979.089844"></use>
     <use xlink:href="#DejaVuSans-6f" x="1006.873047"></use>
     <use xlink:href="#DejaVuSans-6e" x="1068.054688"></use>
    </g>
   </g>
   <g id="legend_1">
    <g id="patch_7">
     <path d="M 64.6 302.584 
L 133.557813 302.584 
Q 135.557813 302.584 135.557813 300.584 
L 135.557813 257.549625 
Q 135.557813 255.549625 133.557813 255.549625 
L 64.6 255.549625 
Q 62.6 255.549625 62.6 257.549625 
L 62.6 300.584 
Q 62.6 302.584 64.6 302.584 
z
" style="fill: #ffffff; opacity: 0.8; stroke: #cccccc; stroke-linejoin: miter"></path>
    </g>
    <g id="line2d_16">
     <path d="M 66.6 263.648062 
L 76.6 263.648062 
L 86.6 263.648062 
" style="fill: none; stroke: #1f77b4; stroke-width: 1.5; stroke-linecap: square"></path>
    </g>
    <g id="text_16">
     <!-- core -->
     <g transform="translate(94.6 267.148062) scale(0.1 -0.1)">
      <use xlink:href="#DejaVuSans-63"></use>
      <use xlink:href="#DejaVuSans-6f" x="54.980469"></use>
      <use xlink:href="#DejaVuSans-72" x="116.162109"></use>
      <use xlink:href="#DejaVuSans-65" x="155.025391"></use>
     </g>
    </g>
    <g id="line2d_17">
     <path d="M 66.6 278.326188 
L 76.6 278.326188 
L 86.6 278.326188 
" style="fill: none; stroke: #ff7f0e; stroke-width: 1.5; stroke-linecap: square"></path>
    </g>
    <g id="text_17">
     <!-- surface -->
     <g transform="translate(94.6 281.826188) scale(0.1 -0.1)">
      <defs>
       <path id="DejaVuSans-66" d="M 2375 4863 
L 2375 4384 
L 1825 4384 
Q 1516 4384 1395 4259 
Q 1275 4134 1275 3809 
L 1275 3500 
L 2222 3500 
L 2222 3053 
L 1275 3053 
L 1275 0 
L 697 0 
L 697 3053 
L 147 3053 
L 147 3500 
L 697 3500 
L 697 3744 
Q 697 4328 969 4595 
Q 1241 4863 1831 4863 
L 2375 4863 
z
" transform="scale(0.015625)"></path>
      </defs>
      <use xlink:href="#DejaVuSans-73"></use>
      <use xlink:href="#DejaVuSans-75" x="52.099609"></use>
      <use xlink:href="#DejaVuSans-72" x="115.478516"></use>
      <use xlink:href="#DejaVuSans-66" x="156.591797"></use>
      <use xlink:href="#DejaVuSans-61" x="191.796875"></use>
      <use xlink:href="#DejaVuSans-63" x="253.076172"></use>
      <use xlink:href="#DejaVuSans-65" x="308.056641"></use>
     </g>
    </g>
    <g id="line2d_18">
     <path d="M 66.6 293.004312 
L 76.6 293.004312 
L 86.6 293.004312 
" style="fill: none; stroke: #2ca02c; stroke-width: 1.5; stroke-linecap: square"></path>
    </g>
    <g id="text_18">
     <!-- mean -->
     <g transform="translate(94.6 296.504312) scale(0.1 -0.1)">
      <use xlink:href="#DejaVuSans-6d"></use>
      <use xlink:href="#DejaVuSans-65" x="97.412109"></use>
      <use xlink:href="#DejaVuSans-61" x="158.935547"></use>
      <use xlink:href="#DejaVuSans-6e" x="220.214844"></use>
     </g>
    </g>
   </g>
  </g>
 </g>
 <defs>
  <clipPath id="p4ae8a07dc1">
   <rect x="57.6" y="41.472" width="357.12" height="266.112"></rect>
  </clipPath>
 </defs>
</svg>
